a0000-p1000.ufo
<glyph name="numbersign" format="1">
  <advance width="528"/>
  <unicode hex="0023"/>
  <outline>
    <contour>
      <point x="72" y="0" type="line"/>
      <point x="199" y="0" type="line"/>
      <point x="259" y="740" type="line"/>
      <point x="132" y="740" type="line"/>
    </contour>
    <contour>
      <point x="32" y="194" type="line"/>
      <point x="496" y="194" type="line"/>
      <point x="496" y="309" type="line"/>
      <point x="32" y="309" type="line"/>
    </contour>
    <contour>
      <point x="32" y="433" type="line"/>
      <point x="496" y="433" type="line"/>
      <point x="496" y="547" type="line"/>
      <point x="32" y="547" type="line"/>
    </contour>
    <contour>
      <point x="270" y="0" type="line"/>
      <point x="397" y="0" type="line"/>
      <point x="457" y="740" type="line"/>
      <point x="330" y="740" type="line"/>
    </contour>
  </outline>
</glyph>
<glyph name="dollar" format="1">
  <advance width="532"/>
  <unicode hex="0024"/>
  <outline>
    <contour>
      <point x="198" y="-130" type="line"/>
      <point x="355" y="-130" type="line"/>
      <point x="355" y="84" type="line"/>
      <point x="198" y="84" type="line"/>
    </contour>
    <contour>
      <point x="197" y="677" type="line"/>
      <point x="354" y="677" type="line"/>
      <point x="354" y="870" type="line"/>
      <point x="197" y="870" type="line"/>
    </contour>
    <component base="S" xOffset="2"/>
  </outline>
</glyph>
<glyph name="asterisk" format="1">
  <advance width="493"/>
  <unicode hex="002A"/>
  <outline>
    <contour>
      <point x="240" y="609" type="line"/>
      <point x="255" y="609" type="line"/>
      <point x="264" y="619" type="line"/>
      <point x="306" y="766" type="line"/>
      <point x="306" y="838" type="line"/>
      <point x="188" y="838" type="line"/>
      <point x="188" y="766" type="line"/>
      <point x="229" y="619" type="line"/>
    </contour>
    <contour>
      <point x="242" y="602" type="line"/>
      <point x="253" y="635" type="line"/>
      <point x="126" y="720" type="line"/>
      <point x="57" y="742" type="line"/>
      <point x="21" y="630" type="line"/>
      <point x="89" y="607" type="line"/>
    </contour>
    <contour>
      <point x="165" y="408" type="line"/>
      <point x="208" y="466" type="line"/>
      <point x="260" y="610" type="line"/>
      <point x="232" y="630" type="line"/>
      <point x="112" y="536" type="line"/>
      <point x="69" y="477" type="line"/>
    </contour>
    <contour>
      <point x="328" y="408" type="line"/>
      <point x="424" y="477" type="line"/>
      <point x="381" y="536" type="line"/>
      <point x="261" y="630" type="line"/>
      <point x="233" y="610" type="line"/>
      <point x="285" y="466" type="line"/>
    </contour>
    <contour>
      <point x="472" y="630" type="line"/>
      <point x="436" y="742" type="line"/>
      <point x="367" y="720" type="line"/>
      <point x="240" y="635" type="line"/>
      <point x="251" y="602" type="line"/>
      <point x="404" y="607" type="line"/>
    </contour>
  </outline>
</glyph>
<glyph name="comma" format="1">
  <advance width="268"/>
  <unicode hex="002C"/>
  <outline>
    <contour>
      <point x="150" y="-155" type="line"/>
      <point x="242" y="185" type="line"/>
      <point x="51" y="185" type="line"/>
      <point x="9" y="-145" type="line"/>
    </contour>
  </outline>
</glyph>
<glyph name="six" format="1">
  <advance width="589"/>
  <unicode hex="0036"/>
  <outline>
    <contour>
      <point x="302" y="-10" type="curve" smooth="yes"/>
      <point x="469" y="-10"/>
      <point x="571" y="90"/>
      <point x="571" y="253" type="curve" smooth="yes"/>
      <point x="571" y="390"/>
      <point x="484" y="478"/>
      <point x="350" y="478" type="curve" smooth="yes"/>
      <point x="269" y="478"/>
      <point x="206" y="442"/>
      <point x="182" y="382" type="curve"/>
      <point x="204" y="288" type="line"/>
      <point x="216" y="316"/>
      <point x="260" y="340"/>
      <point x="302" y="340" type="curve" smooth="yes"/>
      <point x="358" y="340"/>
      <point x="381" y="313"/>
      <point x="381" y="247" type="curve" smooth="yes"/>
      <point x="381" y="179"/>
      <point x="357" y="149"/>
      <point x="302" y="149" type="curve" smooth="yes"/>
      <point x="240" y="149"/>
      <point x="214" y="203"/>
      <point x="214" y="335" type="curve" smooth="yes"/>
      <point x="214" y="530"/>
      <point x="259" y="596"/>
      <point x="393" y="596" type="curve" smooth="yes"/>
      <point x="424" y="596"/>
      <point x="460" y="591"/>
      <point x="509" y="581" type="curve"/>
      <point x="532" y="730" type="line"/>
      <point x="478" y="743"/>
      <point x="430" y="750"/>
      <point x="386" y="750" type="curve" smooth="yes"/>
      <point x="149" y="750"/>
      <point x="29" y="611"/>
      <point x="29" y="336" type="curve" smooth="yes"/>
      <point x="29" y="115"/>
      <point x="128" y="-10"/>
    </contour>
  </outline>
</glyph>
<glyph name="seven" format="1">
  <advance width="476"/>
  <unicode hex="0037"/>
  <outline>
    <contour>
      <point x="240" y="-21" type="line"/>
      <point x="79" y="0" type="line"/>
      <point x="79" y="21" type="line"/>
      <point x="284" y="601" type="line"/>
      <point x="353" y="580" type="line"/>
      <point x="12" y="580" type="line"/>
      <point x="12" y="717" type="line"/>
      <point x="40" y="740" type="line"/>
      <point x="448" y="740" type="line"/>
      <point x="470" y="629" type="line"/>
      <point x="470" y="602" type="line"/>
      <point x="274" y="3" type="line"/>
    </contour>
  </outline>
</glyph>
<glyph name="eight" format="1">
  <advance width="572"/>
  <unicode hex="0038"/>
  <outline>
    <contour>
      <point x="286" y="-3" type="curve" smooth="yes"/>
      <point x="448" y="-3"/>
      <point x="544" y="79"/>
      <point x="544" y="216" type="curve" smooth="yes"/>
      <point x="544" y="373"/>
      <point x="437" y="408"/>
      <point x="345" y="436" type="curve" smooth="yes"/>
      <point x="276" y="457"/>
      <point x="216" y="475"/>
      <point x="216" y="536" type="curve" smooth="yes"/>
      <point x="216" y="592"/>
      <point x="241" y="623"/>
      <point x="286" y="623" type="curve" smooth="yes"/>
      <point x="333" y="623"/>
      <point x="356" y="598"/>
      <point x="356" y="548" type="curve" smooth="yes"/>
      <point x="356" y="486"/>
      <point x="332" y="451"/>
      <point x="270" y="418" type="curve"/>
      <point x="358" y="349" type="line"/>
      <point x="492" y="410"/>
      <point x="526" y="451"/>
      <point x="526" y="549" type="curve" smooth="yes"/>
      <point x="526" y="669"/>
      <point x="430" y="749"/>
      <point x="286" y="749" type="curve" smooth="yes"/>
      <point x="142" y="749"/>
      <point x="46" y="669"/>
      <point x="46" y="549" type="curve" smooth="yes"/>
      <point x="46" y="391"/>
      <point x="149" y="352"/>
      <point x="238" y="318" type="curve" smooth="yes"/>
      <point x="306" y="292"/>
      <point x="367" y="268"/>
      <point x="367" y="196" type="curve" smooth="yes"/>
      <point x="367" y="144"/>
      <point x="339" y="117"/>
      <point x="286" y="117" type="curve" smooth="yes"/>
      <point x="233" y="117"/>
      <point x="205" y="149"/>
      <point x="205" y="210" type="curve" smooth="yes"/>
      <point x="205" y="266"/>
      <point x="249" y="305"/>
      <point x="306" y="336" type="curve"/>
      <point x="187" y="398" type="line"/>
      <point x="78" y="355"/>
      <point x="28" y="287"/>
      <point x="28" y="182" type="curve" smooth="yes"/>
      <point x="28" y="66"/>
      <point x="124" y="-3"/>
    </contour>
  </outline>
</glyph>
<glyph name="question" format="1">
  <advance width="432"/>
  <unicode hex="003F"/>
  <outline>
    <contour>
      <point x="113" y="247" type="line"/>
      <point x="229" y="247" type="line"/>
      <point x="229" y="261" type="line"/>
      <point x="238" y="352" type="line"/>
      <point x="349" y="372"/>
      <point x="411" y="444"/>
      <point x="411" y="549" type="curve" smooth="yes"/>
      <point x="411" y="675"/>
      <point x="327" y="746"/>
      <point x="178" y="746" type="curve" smooth="yes"/>
      <point x="124" y="746"/>
      <point x="74" y="740"/>
      <point x="26" y="727" type="curve"/>
      <point x="31" y="584" type="line"/>
      <point x="55" y="592"/>
      <point x="106" y="599"/>
      <point x="138" y="599" type="curve" smooth="yes"/>
      <point x="195" y="599"/>
      <point x="222" y="577"/>
      <point x="222" y="531" type="curve" smooth="yes"/>
      <point x="222" y="480"/>
      <point x="188" y="454"/>
      <point x="95" y="435" type="curve"/>
      <point x="113" y="260" type="line"/>
    </contour>
    <contour>
      <point x="173" y="-10" type="curve" smooth="yes"/>
      <point x="240" y="-10"/>
      <point x="279" y="26"/>
      <point x="279" y="90" type="curve" smooth="yes"/>
      <point x="279" y="154"/>
      <point x="240" y="190"/>
      <point x="173" y="190" type="curve" smooth="yes"/>
      <point x="106" y="190"/>
      <point x="67" y="154"/>
      <point x="67" y="90" type="curve" smooth="yes"/>
      <point x="67" y="26"/>
      <point x="106" y="-10"/>
    </contour>
  </outline>
</glyph>
<glyph name="A" format="1">
  <advance width="644"/>
  <unicode hex="0041"/>
  <note>
    320
  </note>
  <outline>
    <contour>
      <point x="648" y="7" type="move" name="ogonek"/>
    </contour>
    <contour>
      <point x="324" y="805" type="move" name="topUC"/>
    </contour>
    <contour>
      <point x="-4" y="0" type="line"/>
      <point x="179" y="0" type="line"/>
      <point x="216" y="159" type="line"/>
      <point x="427" y="159" type="line"/>
      <point x="465" y="0" type="line"/>
      <point x="648" y="0" type="line"/>
      <point x="648" y="7" type="line"/>
      <point x="471" y="740" type="line"/>
      <point x="173" y="740" type="line"/>
      <point x="-4" y="7" type="line"/>
    </contour>
    <contour>
      <point x="252" y="314" type="line"/>
      <point x="292" y="490" type="line"/>
      <point x="316" y="598" type="line"/>
      <point x="328" y="598" type="line"/>
      <point x="352" y="490" type="line"/>
      <point x="391" y="314" type="line"/>
    </contour>
  </outline>
</glyph>
<glyph name="M" format="1">
  <advance width="901"/>
  <unicode hex="004D"/>
  <outline>
    <contour>
      <point x="50" y="0" type="line"/>
      <point x="228" y="0" type="line"/>
      <point x="228" y="510" type="line"/>
      <point x="234" y="510" type="line"/>
      <point x="268" y="379" type="line"/>
      <point x="368" y="40" type="line"/>
      <point x="529" y="40" type="line"/>
      <point x="631" y="379" type="line"/>
      <point x="663" y="510" type="line"/>
      <point x="669" y="510" type="line"/>
      <point x="669" y="0" type="line"/>
      <point x="851" y="0" type="line"/>
      <point x="851" y="740" type="line"/>
      <point x="570" y="740" type="line"/>
      <point x="475" y="419" type="line"/>
      <point x="454" y="289" type="line"/>
      <point x="446" y="289" type="line"/>
      <point x="425" y="419" type="line"/>
      <point x="331" y="740" type="line"/>
      <point x="50" y="740" type="line"/>
    </contour>
  </outline>
</glyph>
<glyph name="S" format="1">
  <advance width="524"/>
  <unicode hex="0053"/>
  <outline>
    <contour>
      <point x="262" y="805" type="move" name="topUC"/>
    </contour>
    <contour>
      <point x="268" y="0" type="move" name="bottom"/>
    </contour>
    <contour>
      <point x="253" y="-12" type="curve" smooth="yes"/>
      <point x="410" y="-12"/>
      <point x="508" y="79"/>
      <point x="508" y="225" type="curve" smooth="yes"/>
      <point x="508" y="364"/>
      <point x="433" y="410"/>
      <point x="361" y="439" type="curve" smooth="yes"/>
      <point x="293" y="466"/>
      <point x="227" y="477"/>
      <point x="227" y="535" type="curve" smooth="yes"/>
      <point x="227" y="574"/>
      <point x="252" y="592"/>
      <point x="306" y="592" type="curve" smooth="yes"/>
      <point x="346" y="592"/>
      <point x="423" y="579"/>
      <point x="473" y="564" type="curve"/>
      <point x="473" y="719" type="line"/>
      <point x="410" y="739"/>
      <point x="348" y="748"/>
      <point x="289" y="748" type="curve" smooth="yes"/>
      <point x="127" y="748"/>
      <point x="32" y="669"/>
      <point x="32" y="535" type="curve" smooth="yes"/>
      <point x="32" y="357"/>
      <point x="121" y="316"/>
      <point x="199" y="294" type="curve" smooth="yes"/>
      <point x="260" y="277"/>
      <point x="313" y="270"/>
      <point x="313" y="218" type="curve" smooth="yes"/>
      <point x="313" y="172"/>
      <point x="281" y="149"/>
      <point x="215" y="149" type="curve" smooth="yes"/>
      <point x="159" y="149"/>
      <point x="77" y="168"/>
      <point x="28" y="191" type="curve"/>
      <point x="28" y="28" type="line"/>
      <point x="113" y="0"/>
      <point x="183" y="-12"/>
    </contour>
  </outline>
</glyph>
<glyph name="T" format="1">
  <advance width="556"/>
  <unicode hex="0054"/>
  <outline>
    <contour>
      <point x="272" y="805" type="move" name="topUC"/>
    </contour>
    <contour>
      <point x="278" y="0" type="move" name="bottom"/>
    </contour>
    <contour>
      <point x="180" y="0" type="line"/>
      <point x="375" y="0" type="line"/>
      <point x="375" y="574" type="line"/>
      <point x="539" y="574" type="line"/>
      <point x="539" y="740" type="line"/>
      <point x="17" y="740" type="line"/>
      <point x="17" y="574" type="line"/>
      <point x="180" y="574" type="line"/>
    </contour>
  </outline>
</glyph>
<glyph name="V" format="1">
  <advance width="638"/>
  <unicode hex="0056"/>
  <outline>
    <contour>
      <point x="185" y="0" type="line"/>
      <point x="455" y="0" type="line"/>
      <point x="641" y="740" type="line"/>
      <point x="455" y="740" type="line"/>
      <point x="356" y="329" type="line"/>
      <point x="328" y="167" type="line"/>
      <point x="312" y="167" type="line"/>
      <point x="286" y="329" type="line"/>
      <point x="185" y="740" type="line"/>
      <point x="-5" y="740" type="line"/>
    </contour>
  </outline>
</glyph>
<glyph name="X" format="1">
  <advance width="649"/>
  <unicode hex="0058"/>
  <outline>
    <contour>
      <point x="-18" y="0" type="line"/>
      <point x="189" y="0" type="line"/>
      <point x="311" y="246" type="line"/>
      <point x="314" y="262" type="line"/>
      <point x="318" y="262" type="line"/>
      <point x="321" y="246" type="line"/>
      <point x="454" y="0" type="line"/>
      <point x="668" y="0" type="line"/>
      <point x="447" y="397" type="line"/>
      <point x="642" y="740" type="line"/>
      <point x="436" y="740" type="line"/>
      <point x="337" y="529" type="line"/>
      <point x="334" y="513" type="line"/>
      <point x="331" y="513" type="line"/>
      <point x="328" y="529" type="line"/>
      <point x="225" y="740" type="line"/>
      <point x="7" y="740" type="line"/>
      <point x="200" y="383" type="line"/>
    </contour>
  </outline>
</glyph>
<glyph name="Z" format="1">
  <advance width="562"/>
  <unicode hex="005A"/>
  <outline>
    <contour>
      <point x="286" y="805" type="move" name="topUC"/>
    </contour>
    <contour>
      <point x="282" y="0" type="move" name="bottom"/>
    </contour>
    <contour>
      <point x="23" y="0" type="line"/>
      <point x="540" y="0" type="line"/>
      <point x="540" y="163" type="line"/>
      <point x="236" y="163" type="line"/>
      <point x="236" y="173" type="line"/>
      <point x="522" y="559" type="line"/>
      <point x="522" y="740" type="line"/>
      <point x="40" y="740" type="line"/>
      <point x="40" y="577" type="line"/>
      <point x="309" y="577" type="line"/>
      <point x="309" y="566" type="line"/>
      <point x="23" y="180" type="line"/>
    </contour>
  </outline>
</glyph>
<glyph name="bracketright" format="1">
  <advance width="354"/>
  <unicode hex="005D"/>
  <outline>
    <contour>
      <point x="296" y="-160" type="line"/>
      <point x="296" y="868" type="line"/>
      <point x="16" y="868" type="line"/>
      <point x="16" y="747" type="line"/>
      <point x="150" y="747" type="line"/>
      <point x="150" y="-39" type="line"/>
      <point x="16" y="-39" type="line"/>
      <point x="16" y="-160" type="line"/>
    </contour>
  </outline>
</glyph>
<glyph name="b" format="1">
  <advance width="559"/>
  <unicode hex="0062"/>
  <outline>
    <contour>
      <point x="269" y="-9" type="curve" smooth="yes"/>
      <point x="461" y="-4"/>
      <point x="535" y="106"/>
      <point x="535" y="291" type="curve" smooth="yes"/>
      <point x="535" y="464"/>
      <point x="478" y="549"/>
      <point x="363" y="549" type="curve" smooth="yes"/>
      <point x="307" y="549"/>
      <point x="261" y="527"/>
      <point x="231" y="486" type="curve"/>
      <point x="231" y="808" type="line"/>
      <point x="41" y="808" type="line"/>
      <point x="41" y="36" type="line"/>
      <point x="124" y="7"/>
      <point x="202" y="-9"/>
    </contour>
    <contour>
      <point x="274" y="114" type="curve" smooth="yes"/>
      <point x="255" y="114"/>
      <point x="238" y="118"/>
      <point x="231" y="125" type="curve"/>
      <point x="231" y="217" type="line" smooth="yes"/>
      <point x="231" y="379"/>
      <point x="242" y="417"/>
      <point x="289" y="417" type="curve" smooth="yes"/>
      <point x="333" y="417"/>
      <point x="341" y="394"/>
      <point x="341" y="267" type="curve" smooth="yes"/>
      <point x="341" y="139"/>
      <point x="330" y="114"/>
    </contour>
  </outline>
</glyph>
<glyph name="d" format="1">
  <advance width="560"/>
  <unicode hex="0064"/>
  <outline>
    <contour>
      <point x="565" y="674" type="move" name="caronalt"/>
    </contour>
    <contour>
      <point x="284" y="0" type="move" name="bottom"/>
    </contour>
    <contour>
      <point x="196" y="-9" type="curve" smooth="yes"/>
      <point x="251" y="-9"/>
      <point x="297" y="13"/>
      <point x="328" y="54" type="curve"/>
      <point x="333" y="54" type="line"/>
      <point x="343" y="0" type="line"/>
      <point x="518" y="0" type="line"/>
      <point x="518" y="808" type="line"/>
      <point x="328" y="808" type="line"/>
      <point x="328" y="547" type="line"/>
      <point x="308" y="548"/>
      <point x="299" y="549"/>
      <point x="290" y="549" type="curve" smooth="yes"/>
      <point x="111" y="549"/>
      <point x="24" y="451"/>
      <point x="24" y="249" type="curve" smooth="yes"/>
      <point x="24" y="76"/>
      <point x="81" y="-9"/>
    </contour>
    <contour>
      <point x="270" y="123" type="curve" smooth="yes"/>
      <point x="227" y="123"/>
      <point x="218" y="149"/>
      <point x="218" y="273" type="curve" smooth="yes"/>
      <point x="218" y="401"/>
      <point x="229" y="426"/>
      <point x="285" y="426" type="curve" smooth="yes"/>
      <point x="303" y="426"/>
      <point x="320" y="422"/>
      <point x="328" y="415" type="curve"/>
      <point x="328" y="323" type="line" smooth="yes"/>
      <point x="328" y="161"/>
      <point x="317" y="123"/>
    </contour>
  </outline>
</glyph>
<glyph name="h" format="1">
  <advance width="556"/>
  <unicode hex="0068"/>
  <outline>
    <contour>
      <point x="281" y="600" type="move" name="top"/>
    </contour>
    <contour>
      <point x="279" y="0" type="move" name="bottom"/>
    </contour>
    <contour>
      <point x="42" y="0" type="line"/>
      <point x="232" y="0" type="line"/>
      <point x="232" y="366" type="line"/>
      <point x="256" y="379"/>
      <point x="276" y="386"/>
      <point x="289" y="386" type="curve" smooth="yes"/>
      <point x="313" y="386"/>
      <point x="326" y="368"/>
      <point x="326" y="335" type="curve" smooth="yes"/>
      <point x="326" y="0" type="line"/>
      <point x="516" y="0" type="line"/>
      <point x="516" y="405" type="line" smooth="yes"/>
      <point x="516" y="491"/>
      <point x="465" y="550"/>
      <point x="391" y="550" type="curve" smooth="yes"/>
      <point x="337" y="550"/>
      <point x="308" y="539"/>
      <point x="216" y="482" type="curve"/>
      <point x="232" y="474" type="line"/>
      <point x="232" y="808" type="line"/>
      <point x="42" y="808" type="line"/>
    </contour>
  </outline>
</glyph>
<glyph name="k" format="1">
  <advance width="551"/>
  <unicode hex="006B"/>
  <outline>
    <contour>
      <point x="289" y="0" type="move" name="bottom"/>
    </contour>
    <contour>
      <point x="42" y="0" type="line"/>
      <point x="232" y="0" type="line"/>
      <point x="232" y="210" type="line"/>
      <point x="257" y="210" type="line"/>
      <point x="362" y="0" type="line"/>
      <point x="568" y="0" type="line"/>
      <point x="408" y="267" type="line"/>
      <point x="380" y="277" type="line"/>
      <point x="380" y="281" type="line"/>
      <point x="408" y="291" type="line"/>
      <point x="550" y="540" type="line"/>
      <point x="346" y="540" type="line"/>
      <point x="257" y="347" type="line"/>
      <point x="232" y="347" type="line"/>
      <point x="232" y="808" type="line"/>
      <point x="42" y="808" type="line"/>
    </contour>
  </outline>
</glyph>
<glyph name="n" format="1">
  <advance width="556"/>
  <unicode hex="006E"/>
  <outline>
    <contour>
      <point x="7" y="674" type="move" name="apostrophe"/>
    </contour>
    <contour>
      <point x="284" y="600" type="move" name="top"/>
    </contour>
    <contour>
      <point x="279" y="0" type="move" name="bottom"/>
    </contour>
    <contour>
      <point x="42" y="0" type="line"/>
      <point x="232" y="0" type="line"/>
      <point x="232" y="366" type="line"/>
      <point x="252" y="377"/>
      <point x="272" y="386"/>
      <point x="289" y="386" type="curve" smooth="yes"/>
      <point x="310" y="386"/>
      <point x="326" y="372"/>
      <point x="326" y="335" type="curve" smooth="yes"/>
      <point x="326" y="0" type="line"/>
      <point x="516" y="0" type="line"/>
      <point x="516" y="405" type="line" smooth="yes"/>
      <point x="516" y="491"/>
      <point x="465" y="550"/>
      <point x="391" y="550" type="curve" smooth="yes"/>
      <point x="335" y="550"/>
      <point x="307" y="539"/>
      <point x="216" y="482" type="curve"/>
      <point x="212" y="482" type="line"/>
      <point x="202" y="540" type="line"/>
      <point x="42" y="540" type="line"/>
    </contour>
  </outline>
</glyph>
<glyph name="r" format="1">
  <advance width="396"/>
  <unicode hex="0072"/>
  <outline>
    <contour>
      <point x="215" y="600" type="move" name="top"/>
    </contour>
    <contour>
      <point x="132" y="0" type="move" name="bottom"/>
    </contour>
    <contour>
      <point x="42" y="0" type="line"/>
      <point x="232" y="0" type="line"/>
      <point x="232" y="333" type="line"/>
      <point x="240" y="347"/>
      <point x="287" y="371"/>
      <point x="310" y="374" type="curve"/>
      <point x="387" y="374" type="line"/>
      <point x="387" y="549" type="line"/>
      <point x="353" y="549" type="line"/>
      <point x="305" y="528"/>
      <point x="224" y="472"/>
      <point x="220" y="456" type="curve"/>
      <point x="212" y="456" type="line"/>
      <point x="202" y="540" type="line"/>
      <point x="42" y="540" type="line"/>
    </contour>
  </outline>
</glyph>
<glyph name="s" format="1">
  <advance width="448"/>
  <unicode hex="0073"/>
  <outline>
    <contour>
      <point x="231" y="600" type="move" name="top"/>
    </contour>
    <contour>
      <point x="216" y="0" type="move" name="bottom"/>
    </contour>
    <contour>
      <point x="199" y="-9" type="curve" smooth="yes"/>
      <point x="347" y="-9"/>
      <point x="429" y="55"/>
      <point x="429" y="171" type="curve" smooth="yes"/>
      <point x="429" y="321"/>
      <point x="315" y="332"/>
      <point x="249" y="340" type="curve" smooth="yes"/>
      <point x="220" y="343"/>
      <point x="206" y="354"/>
      <point x="206" y="374" type="curve" smooth="yes"/>
      <point x="206" y="397"/>
      <point x="227" y="409"/>
      <point x="268" y="409" type="curve" smooth="yes"/>
      <point x="302" y="409"/>
      <point x="332" y="405"/>
      <point x="398" y="390" type="curve"/>
      <point x="398" y="527" type="line"/>
      <point x="344" y="540"/>
      <point x="276" y="549"/>
      <point x="226" y="549" type="curve" smooth="yes"/>
      <point x="100" y="549"/>
      <point x="31" y="483"/>
      <point x="31" y="365" type="curve" smooth="yes"/>
      <point x="31" y="205"/>
      <point x="134" y="198"/>
      <point x="198" y="191" type="curve" smooth="yes"/>
      <point x="233" y="187"/>
      <point x="249" y="176"/>
      <point x="249" y="157" type="curve" smooth="yes"/>
      <point x="249" y="136"/>
      <point x="233" y="127"/>
      <point x="196" y="127" type="curve" smooth="yes"/>
      <point x="142" y="127"/>
      <point x="73" y="140"/>
      <point x="31" y="158" type="curve"/>
      <point x="31" y="21" type="line"/>
      <point x="82" y="2"/>
      <point x="143" y="-9"/>
    </contour>
  </outline>
</glyph>
<glyph name="t" format="1">
  <advance width="386"/>
  <unicode hex="0074"/>
  <outline>
    <contour>
      <point x="398" y="674" type="move" name="caronalt"/>
    </contour>
    <contour>
      <point x="215" y="0" type="move" name="bottom"/>
    </contour>
    <contour>
      <point x="269" y="-7" type="curve" smooth="yes"/>
      <point x="304" y="-7"/>
      <point x="339" y="-3"/>
      <point x="366" y="4" type="curve"/>
      <point x="366" y="139" type="line"/>
      <point x="347" y="134"/>
      <point x="332" y="132"/>
      <point x="319" y="132" type="curve" smooth="yes"/>
      <point x="287" y="132"/>
      <point x="272" y="148"/>
      <point x="272" y="200" type="curve" smooth="yes"/>
      <point x="272" y="382" type="line"/>
      <point x="364" y="382" type="line"/>
      <point x="364" y="540" type="line"/>
      <point x="271" y="540" type="line"/>
      <point x="271" y="720" type="line"/>
      <point x="118" y="702" type="line"/>
      <point x="93" y="540" type="line"/>
      <point x="9" y="540" type="line"/>
      <point x="9" y="382" type="line"/>
      <point x="82" y="382" type="line"/>
      <point x="82" y="151" type="line" smooth="yes"/>
      <point x="82" y="49"/>
      <point x="147" y="-7"/>
    </contour>
  </outline>
</glyph>
<glyph name="u" format="1">
  <advance width="555"/>
  <unicode hex="0075"/>
  <outline>
    <contour>
      <point x="279" y="600" type="move" name="top"/>
    </contour>
    <contour>
      <point x="513" y="0" type="move" name="ogonek"/>
    </contour>
    <contour>
      <point x="279" y="0" type="move" name="bottom"/>
    </contour>
    <contour>
      <point x="184" y="-10" type="curve" smooth="yes"/>
      <point x="232" y="-10"/>
      <point x="260" y="2"/>
      <point x="339" y="54" type="curve"/>
      <point x="343" y="54" type="line"/>
      <point x="353" y="0" type="line"/>
      <point x="513" y="0" type="line"/>
      <point x="513" y="540" type="line"/>
      <point x="323" y="540" type="line"/>
      <point x="323" y="169" type="line"/>
      <point x="300" y="155"/>
      <point x="284" y="149"/>
      <point x="271" y="149" type="curve" smooth="yes"/>
      <point x="244" y="149"/>
      <point x="229" y="167"/>
      <point x="229" y="200" type="curve" smooth="yes"/>
      <point x="229" y="540" type="line"/>
      <point x="39" y="540" type="line"/>
      <point x="39" y="135" type="line" smooth="yes"/>
      <point x="39" y="49"/>
      <point x="98" y="-10"/>
    </contour>
  </outline>
</glyph>
<glyph name="braceright" format="1">
  <advance width="325"/>
  <unicode hex="007D"/>
  <outline>
    <contour>
      <point x="307" y="425" type="line"/>
      <point x="260" y="425"/>
      <point x="246" y="454"/>
      <point x="246" y="512" type="curve" smooth="yes"/>
      <point x="246" y="741" type="line" smooth="yes"/>
      <point x="246" y="833"/>
      <point x="212" y="868"/>
      <point x="132" y="868" type="curve" smooth="yes"/>
      <point x="107" y="868"/>
      <point x="30" y="865"/>
      <point x="18" y="863" type="curve"/>
      <point x="18" y="747" type="line"/>
      <point x="51" y="747" type="line" smooth="yes"/>
      <point x="83" y="747"/>
      <point x="96" y="734"/>
      <point x="96" y="705" type="curve" smooth="yes"/>
      <point x="96" y="473" type="line" smooth="yes"/>
      <point x="96" y="411"/>
      <point x="130" y="363"/>
      <point x="180" y="354" type="curve"/>
      <point x="130" y="347"/>
      <point x="96" y="300"/>
      <point x="96" y="238" type="curve" smooth="yes"/>
      <point x="96" y="3" type="line" smooth="yes"/>
      <point x="96" y="-26"/>
      <point x="83" y="-39"/>
      <point x="51" y="-39" type="curve" smooth="yes"/>
      <point x="18" y="-39" type="line"/>
      <point x="18" y="-155" type="line"/>
      <point x="30" y="-157"/>
      <point x="107" y="-160"/>
      <point x="132" y="-160" type="curve" smooth="yes"/>
      <point x="212" y="-160"/>
      <point x="246" y="-125"/>
      <point x="246" y="-33" type="curve" smooth="yes"/>
      <point x="246" y="199" type="line" smooth="yes"/>
      <point x="246" y="257"/>
      <point x="260" y="285"/>
      <point x="307" y="285" type="curve"/>
    </contour>
  </outline>
</glyph>
<glyph name="asciitilde" format="1">
  <advance width="606"/>
  <unicode hex="007E"/>
  <outline>
    <contour>
      <point x="132" y="197" type="line"/>
      <point x="159" y="248"/>
      <point x="188" y="274"/>
      <point x="219" y="274" type="curve" smooth="yes"/>
      <point x="279" y="274"/>
      <point x="329" y="200"/>
      <point x="407" y="200" type="curve" smooth="yes"/>
      <point x="491" y="200"/>
      <point x="545" y="291"/>
      <point x="585" y="349" type="curve" smooth="yes"/>
      <point x="475" y="416" type="line"/>
      <point x="448" y="364"/>
      <point x="420" y="339"/>
      <point x="388" y="339" type="curve" smooth="yes"/>
      <point x="328" y="339"/>
      <point x="278" y="412"/>
      <point x="200" y="412" type="curve" smooth="yes"/>
      <point x="142" y="412"/>
      <point x="104" y="381"/>
      <point x="22" y="264" type="curve"/>
    </contour>
  </outline>
</glyph>
<glyph name="yen" format="1">
  <advance width="740"/>
  <unicode hex="00A5"/>
  <outline>
    <contour>
      <point x="96" y="50" type="line"/>
      <point x="639" y="50" type="line"/>
      <point x="639" y="182" type="line"/>
      <point x="96" y="182" type="line"/>
    </contour>
    <contour>
      <point x="96" y="246" type="line"/>
      <point x="639" y="246" type="line"/>
      <point x="639" y="378" type="line"/>
      <point x="96" y="378" type="line"/>
    </contour>
    <component base="Y" xOffset="31"/>
  </outline>
</glyph>
<glyph name="section" format="1">
  <advance width="470"/>
  <unicode hex="00A7"/>
  <outline>
    <contour>
      <point x="207" y="-9" type="curve" smooth="yes"/>
      <point x="355" y="-9"/>
      <point x="437" y="55"/>
      <point x="437" y="171" type="curve" smooth="yes"/>
      <point x="437" y="220"/>
      <point x="423" y="253"/>
      <point x="403" y="276" type="curve"/>
      <point x="425" y="304"/>
      <point x="437" y="340"/>
      <point x="437" y="384" type="curve" smooth="yes"/>
      <point x="437" y="534"/>
      <point x="323" y="545"/>
      <point x="257" y="553" type="curve" smooth="yes"/>
      <point x="228" y="556"/>
      <point x="214" y="567"/>
      <point x="214" y="587" type="curve" smooth="yes"/>
      <point x="214" y="610"/>
      <point x="235" y="622"/>
      <point x="276" y="622" type="curve" smooth="yes"/>
      <point x="310" y="622"/>
      <point x="340" y="618"/>
      <point x="406" y="603" type="curve"/>
      <point x="406" y="740" type="line"/>
      <point x="352" y="753"/>
      <point x="284" y="762"/>
      <point x="234" y="762" type="curve" smooth="yes"/>
      <point x="108" y="762"/>
      <point x="39" y="696"/>
      <point x="39" y="578" type="curve" smooth="yes"/>
      <point x="39" y="530"/>
      <point x="50" y="496"/>
      <point x="66" y="473" type="curve"/>
      <point x="48" y="444"/>
      <point x="39" y="408"/>
      <point x="39" y="365" type="curve" smooth="yes"/>
      <point x="39" y="205"/>
      <point x="142" y="198"/>
      <point x="206" y="191" type="curve" smooth="yes"/>
      <point x="241" y="187"/>
      <point x="257" y="176"/>
      <point x="257" y="157" type="curve" smooth="yes"/>
      <point x="257" y="136"/>
      <point x="241" y="127"/>
      <point x="204" y="127" type="curve" smooth="yes"/>
      <point x="150" y="127"/>
      <point x="81" y="140"/>
      <point x="39" y="158" type="curve"/>
      <point x="39" y="21" type="line"/>
      <point x="90" y="2"/>
      <point x="151" y="-9"/>
    </contour>
    <contour>
      <point x="257" y="330" type="curve"/>
      <point x="241" y="331"/>
      <point x="229" y="333"/>
      <point x="221" y="337" type="curve" smooth="yes"/>
      <point x="207" y="343"/>
      <point x="204" y="354"/>
      <point x="204" y="374" type="curve" smooth="yes"/>
      <point x="204" y="386"/>
      <point x="212" y="398"/>
      <point x="228" y="409" type="curve"/>
      <point x="238" y="407"/>
      <point x="246" y="404"/>
      <point x="252" y="400" type="curve" smooth="yes"/>
      <point x="262" y="394"/>
      <point x="267" y="384"/>
      <point x="267" y="370" type="curve" smooth="yes"/>
      <point x="267" y="353"/>
      <point x="263" y="340"/>
    </contour>
  </outline>
</glyph>
<glyph name="dieresis" format="1">
  <advance width="502"/>
  <unicode hex="00A8"/>
  <outline>
    <contour>
      <point x="251" y="600" type="move" name="_top"/>
    </contour>
    <contour>
      <point x="128" y="608" type="curve" smooth="yes"/>
      <point x="191" y="608"/>
      <point x="221" y="635"/>
      <point x="221" y="698" type="curve" smooth="yes"/>
      <point x="221" y="761"/>
      <point x="191" y="787"/>
      <point x="128" y="787" type="curve" smooth="yes"/>
      <point x="63" y="787"/>
      <point x="36" y="760"/>
      <point x="36" y="698" type="curve" smooth="yes"/>
      <point x="36" y="635"/>
      <point x="63" y="608"/>
    </contour>
    <contour>
      <point x="372" y="608" type="curve" smooth="yes"/>
      <point x="435" y="608"/>
      <point x="464" y="635"/>
      <point x="464" y="698" type="curve" smooth="yes"/>
      <point x="464" y="761"/>
      <point x="435" y="787"/>
      <point x="372" y="787" type="curve" smooth="yes"/>
      <point x="307" y="787"/>
      <point x="280" y="760"/>
      <point x="280" y="698" type="curve" smooth="yes"/>
      <point x="280" y="635"/>
      <point x="307" y="608"/>
    </contour>
  </outline>
</glyph>
<glyph name="ordfeminine" format="1">
  <advance width="422"/>
  <unicode hex="00AA"/>
  <outline>
    <contour>
      <point x="135" y="348" type="curve" smooth="yes"/>
      <point x="179" y="348"/>
      <point x="227" y="368"/>
      <point x="246" y="399" type="curve"/>
      <point x="250" y="399" type="line"/>
      <point x="256" y="352" type="line"/>
      <point x="384" y="352" type="line"/>
      <point x="384" y="622" type="line" smooth="yes"/>
      <point x="384" y="708"/>
      <point x="330" y="746"/>
      <point x="203" y="746" type="curve" smooth="yes"/>
      <point x="150" y="746"/>
      <point x="100" y="740"/>
      <point x="51" y="730" type="curve"/>
      <point x="60" y="631" type="line"/>
      <point x="99" y="637"/>
      <point x="152" y="641"/>
      <point x="190" y="641" type="curve" smooth="yes"/>
      <point x="232" y="641"/>
      <point x="236" y="639"/>
      <point x="236" y="584" type="curve" smooth="yes"/>
      <point x="236" y="465" type="line"/>
      <point x="227" y="455"/>
      <point x="210" y="446"/>
      <point x="198" y="446" type="curve" smooth="yes"/>
      <point x="180" y="446"/>
      <point x="170" y="458"/>
      <point x="170" y="481" type="curve" smooth="yes"/>
      <point x="170" y="501"/>
      <point x="175" y="509"/>
      <point x="191" y="511" type="curve" smooth="yes"/>
      <point x="256" y="517" type="line"/>
      <point x="250" y="589" type="line"/>
      <point x="153" y="586" type="line" smooth="yes"/>
      <point x="64" y="584"/>
      <point x="20" y="544"/>
      <point x="20" y="470" type="curve" smooth="yes"/>
      <point x="20" y="396"/>
      <point x="65" y="348"/>
    </contour>
  </outline>
</glyph>
<glyph name="threesuperior" format="1">
  <advance width="388"/>
  <unicode hex="00B3"/>
  <outline>
    <contour>
      <point x="144" y="293" type="curve" smooth="yes"/>
      <point x="286" y="293"/>
      <point x="368" y="352"/>
      <point x="368" y="455" type="curve" smooth="yes"/>
      <point x="368" y="517"/>
      <point x="334" y="563"/>
      <point x="274" y="582" type="curve"/>
      <point x="326" y="602"/>
      <point x="353" y="647"/>
      <point x="353" y="715" type="curve" smooth="yes"/>
      <point x="353" y="812"/>
      <point x="290" y="854"/>
      <point x="142" y="854" type="curve" smooth="yes"/>
      <point x="99" y="854"/>
      <point x="63" y="850"/>
      <point x="27" y="841" type="curve"/>
      <point x="27" y="709" type="line"/>
      <point x="36" y="709" type="line"/>
      <point x="73" y="716"/>
      <point x="103" y="719"/>
      <point x="128" y="719" type="curve" smooth="yes"/>
      <point x="173" y="719"/>
      <point x="193" y="706"/>
      <point x="193" y="677" type="curve" smooth="yes"/>
      <point x="193" y="646"/>
      <point x="173" y="635"/>
      <point x="117" y="635" type="curve" smooth="yes"/>
      <point x="84" y="635" type="line"/>
      <point x="84" y="515" type="line"/>
      <point x="118" y="515" type="line" smooth="yes"/>
      <point x="188" y="515"/>
      <point x="208" y="505"/>
      <point x="208" y="471" type="curve" smooth="yes"/>
      <point x="208" y="440"/>
      <point x="184" y="428"/>
      <point x="119" y="428" type="curve" smooth="yes"/>
      <point x="91" y="428"/>
      <point x="59" y="433"/>
      <point x="37" y="440" type="curve"/>
      <point x="27" y="440" type="line"/>
      <point x="27" y="304" type="line"/>
      <point x="66" y="296"/>
      <point x="100" y="293"/>
    </contour>
  </outline>
</glyph>
<glyph name="mu" format="1">
  <advance width="591"/>
  <unicode hex="00B5"/>
  <outline>
    <contour>
      <point x="202" y="-10" type="curve" smooth="yes"/>
      <point x="250" y="-10"/>
      <point x="278" y="2"/>
      <point x="357" y="54" type="curve"/>
      <point x="361" y="54" type="line"/>
      <point x="371" y="0" type="line"/>
      <point x="531" y="0" type="line"/>
      <point x="531" y="540" type="line"/>
      <point x="341" y="540" type="line"/>
      <point x="341" y="169" type="line"/>
      <point x="318" y="155"/>
      <point x="302" y="149"/>
      <point x="289" y="149" type="curve" smooth="yes"/>
      <point x="262" y="149"/>
      <point x="247" y="167"/>
      <point x="247" y="200" type="curve" smooth="yes"/>
      <point x="247" y="540" type="line"/>
      <point x="57" y="540" type="line"/>
      <point x="57" y="135" type="line" smooth="yes"/>
      <point x="57" y="49"/>
      <point x="116" y="-10"/>
    </contour>
    <contour>
      <point x="57" y="-220" type="line"/>
      <point x="247" y="-220" type="line"/>
      <point x="247" y="200" type="line"/>
      <point x="57" y="200" type="line"/>
    </contour>
  </outline>
</glyph>
<glyph name="periodcentered" format="1">
  <advance width="261"/>
  <unicode hex="00B7"/>
  <outline>
    <contour>
      <point x="130" y="370" type="move" name="_periodcentered"/>
    </contour>
    <contour>
      <point x="130" y="270" type="curve" smooth="yes"/>
      <point x="201" y="270"/>
      <point x="233" y="299"/>
      <point x="233" y="370" type="curve" smooth="yes"/>
      <point x="233" y="441"/>
      <point x="201" y="470"/>
      <point x="130" y="470" type="curve" smooth="yes"/>
      <point x="57" y="470"/>
      <point x="28" y="440"/>
      <point x="28" y="370" type="curve" smooth="yes"/>
      <point x="28" y="300"/>
      <point x="57" y="270"/>
    </contour>
  </outline>
</glyph>
<glyph name="cedilla" format="1">
  <advance width="262"/>
  <unicode hex="00B8"/>
  <outline>
    <contour>
      <point x="142" y="0" type="move" name="_bottom"/>
    </contour>
    <contour>
      <point x="113" y="-220" type="curve" smooth="yes"/>
      <point x="193" y="-220"/>
      <point x="235" y="-177"/>
      <point x="235" y="-114" type="curve" smooth="yes"/>
      <point x="235" y="-58"/>
      <point x="216" y="-21"/>
      <point x="163" y="48" type="curve"/>
      <point x="50" y="48" type="line"/>
      <point x="87" y="-3"/>
      <point x="113" y="-52"/>
      <point x="113" y="-80" type="curve" smooth="yes"/>
      <point x="113" y="-93"/>
      <point x="105" y="-106"/>
      <point x="83" y="-106" type="curve" smooth="yes"/>
      <point x="79" y="-106"/>
      <point x="51" y="-105"/>
      <point x="24" y="-100" type="curve"/>
      <point x="24" y="-208" type="line"/>
      <point x="60" y="-217"/>
      <point x="92" y="-220"/>
    </contour>
  </outline>
</glyph>
<glyph name="ordmasculine" format="1">
  <advance width="435"/>
  <unicode hex="00BA"/>
  <outline>
    <contour>
      <point x="217" y="451" type="curve" smooth="yes"/>
      <point x="167" y="451"/>
      <point x="170" y="466"/>
      <point x="170" y="546" type="curve" smooth="yes"/>
      <point x="170" y="625"/>
      <point x="167" y="640"/>
      <point x="217" y="640" type="curve" smooth="yes"/>
      <point x="268" y="640"/>
      <point x="265" y="625"/>
      <point x="265" y="546" type="curve" smooth="yes"/>
      <point x="265" y="466"/>
      <point x="268" y="451"/>
    </contour>
    <contour>
      <point x="217" y="345" type="curve" smooth="yes"/>
      <point x="344" y="345"/>
      <point x="414" y="411"/>
      <point x="414" y="546" type="curve" smooth="yes"/>
      <point x="414" y="681"/>
      <point x="344" y="747"/>
      <point x="217" y="747" type="curve" smooth="yes"/>
      <point x="92" y="747"/>
      <point x="21" y="681"/>
      <point x="21" y="546" type="curve" smooth="yes"/>
      <point x="21" y="411"/>
      <point x="92" y="345"/>
    </contour>
  </outline>
</glyph>
<glyph name="multiply" format="1">
  <advance width="506"/>
  <unicode hex="00D7"/>
  <outline>
    <contour>
      <point x="388" y="140" type="line"/>
      <point x="483" y="235" type="line"/>
      <point x="118" y="600" type="line"/>
      <point x="23" y="505" type="line"/>
    </contour>
    <contour>
      <point x="118" y="140" type="line"/>
      <point x="483" y="505" type="line"/>
      <point x="387" y="600" type="line"/>
      <point x="23" y="235" type="line"/>
    </contour>
  </outline>
</glyph>
<glyph name="Thorn" format="1">
  <advance width="611"/>
  <unicode hex="00DE"/>
  <outline>
    <contour>
      <point x="265" y="102" type="curve" smooth="yes"/>
      <point x="498" y="102"/>
      <point x="596" y="180"/>
      <point x="596" y="364" type="curve" smooth="yes"/>
      <point x="596" y="553"/>
      <point x="495" y="632"/>
      <point x="250" y="632" type="curve" smooth="yes"/>
      <point x="183" y="632"/>
      <point x="113" y="627"/>
      <point x="50" y="617" type="curve"/>
      <point x="50" y="114" type="line"/>
      <point x="110" y="106"/>
      <point x="187" y="102"/>
    </contour>
    <contour>
      <point x="286" y="256" type="curve" smooth="yes"/>
      <point x="245" y="256" type="line"/>
      <point x="245" y="474" type="line"/>
      <point x="280" y="474" type="line" smooth="yes"/>
      <point x="373" y="474"/>
      <point x="396" y="448"/>
      <point x="396" y="364" type="curve" smooth="yes"/>
      <point x="396" y="280"/>
      <point x="372" y="256"/>
    </contour>
    <contour>
      <point x="50" y="0" type="line"/>
      <point x="245" y="0" type="line"/>
      <point x="245" y="740" type="line"/>
      <point x="50" y="740" type="line"/>
    </contour>
  </outline>
</glyph>
<glyph name="germandbls" format="1">
  <advance width="690"/>
  <unicode hex="00DF"/>
  <outline>
    <contour>
      <point x="450" y="-9" type="curve" smooth="yes"/>
      <point x="598" y="-9"/>
      <point x="680" y="55"/>
      <point x="680" y="171" type="curve" smooth="yes"/>
      <point x="680" y="321"/>
      <point x="566" y="332"/>
      <point x="500" y="340" type="curve" smooth="yes"/>
      <point x="471" y="343"/>
      <point x="457" y="354"/>
      <point x="457" y="374" type="curve" smooth="yes"/>
      <point x="457" y="397"/>
      <point x="486" y="409"/>
      <point x="539" y="409" type="curve"/>
      <point x="588" y="409" type="line"/>
      <point x="576" y="549" type="line"/>
      <point x="497" y="549" type="line"/>
      <point x="367" y="549"/>
      <point x="282" y="476"/>
      <point x="282" y="365" type="curve" smooth="yes"/>
      <point x="282" y="205"/>
      <point x="385" y="198"/>
      <point x="449" y="191" type="curve" smooth="yes"/>
      <point x="484" y="187"/>
      <point x="500" y="176"/>
      <point x="500" y="157" type="curve" smooth="yes"/>
      <point x="500" y="136"/>
      <point x="484" y="127"/>
      <point x="447" y="127" type="curve" smooth="yes"/>
      <point x="393" y="127"/>
      <point x="324" y="140"/>
      <point x="282" y="158" type="curve"/>
      <point x="282" y="21" type="line"/>
      <point x="333" y="2"/>
      <point x="394" y="-9"/>
    </contour>
    <contour>
      <point x="42" y="0" type="line"/>
      <point x="232" y="0" type="line"/>
      <point x="232" y="559" type="line" smooth="yes"/>
      <point x="232" y="639"/>
      <point x="255" y="667"/>
      <point x="324" y="667" type="curve" smooth="yes"/>
      <point x="392" y="667"/>
      <point x="416" y="638"/>
      <point x="416" y="559" type="curve" smooth="yes"/>
      <point x="416" y="409" type="line"/>
      <point x="606" y="409" type="line"/>
      <point x="606" y="559" type="line" smooth="yes"/>
      <point x="606" y="735"/>
      <point x="520" y="812"/>
      <point x="324" y="812" type="curve" smooth="yes"/>
      <point x="128" y="812"/>
      <point x="42" y="735"/>
      <point x="42" y="559" type="curve" smooth="yes"/>
    </contour>
  </outline>
</glyph>
<glyph name="idieresis" format="1">
  <advance width="276"/>
  <unicode hex="00EF"/>
  <outline>
    <contour>
      <point x="22" y="608" type="curve" smooth="yes"/>
      <point x="85" y="608"/>
      <point x="115" y="635"/>
      <point x="115" y="698" type="curve" smooth="yes"/>
      <point x="115" y="761"/>
      <point x="85" y="787"/>
      <point x="22" y="787" type="curve" smooth="yes"/>
      <point x="-43" y="787"/>
      <point x="-70" y="760"/>
      <point x="-70" y="698" type="curve" smooth="yes"/>
      <point x="-70" y="635"/>
      <point x="-43" y="608"/>
    </contour>
    <contour>
      <point x="266" y="608" type="curve" smooth="yes"/>
      <point x="329" y="608"/>
      <point x="358" y="635"/>
      <point x="358" y="698" type="curve" smooth="yes"/>
      <point x="358" y="761"/>
      <point x="329" y="787"/>
      <point x="266" y="787" type="curve" smooth="yes"/>
      <point x="201" y="787"/>
      <point x="174" y="760"/>
      <point x="174" y="698" type="curve" smooth="yes"/>
      <point x="174" y="635"/>
      <point x="201" y="608"/>
    </contour>
    <component base="dotlessi" xOffset="1"/>
  </outline>
</glyph>
<glyph name="oslash" format="1">
  <advance width="555"/>
  <unicode hex="00F8"/>
  <outline>
    <contour>
      <point x="282" y="600" type="move" name="top"/>
    </contour>
    <contour>
      <point x="278" y="-11" type="curve" smooth="yes"/>
      <point x="443" y="-11"/>
      <point x="529" y="86"/>
      <point x="529" y="270" type="curve" smooth="yes"/>
      <point x="529" y="454"/>
      <point x="443" y="550"/>
      <point x="278" y="550" type="curve" smooth="yes"/>
      <point x="113" y="550"/>
      <point x="27" y="454"/>
      <point x="27" y="270" type="curve" smooth="yes"/>
      <point x="27" y="86"/>
      <point x="113" y="-11"/>
    </contour>
    <contour>
      <point x="278" y="132" type="curve" smooth="yes"/>
      <point x="224" y="132"/>
      <point x="217" y="150"/>
      <point x="217" y="270" type="curve" smooth="yes"/>
      <point x="217" y="390"/>
      <point x="224" y="407"/>
      <point x="278" y="407" type="curve" smooth="yes"/>
      <point x="331" y="407"/>
      <point x="339" y="390"/>
      <point x="339" y="270" type="curve" smooth="yes"/>
      <point x="339" y="150"/>
      <point x="331" y="132"/>
    </contour>
    <contour>
      <point x="-9" y="0" type="line"/>
      <point x="101" y="0" type="line"/>
      <point x="563" y="540" type="line"/>
      <point x="454" y="540" type="line"/>
    </contour>
  </outline>
</glyph>
<glyph name="gcommaaccent" format="1">
  <advance width="560"/>
  <unicode hex="0123"/>
  <outline>
    <contour>
      <point x="298" y="770" type="line"/>
      <point x="204" y="620" type="line"/>
      <point x="398" y="620" type="line"/>
      <point x="439" y="770" type="line"/>
    </contour>
    <component base="g"/>
  </outline>
</glyph>
<glyph name="Hbar" format="1">
  <advance width="715"/>
  <unicode hex="0126"/>
  <outline>
    <contour>
      <point x="-3" y="537" type="line"/>
      <point x="726" y="537" type="line"/>
      <point x="726" y="624" type="line"/>
      <point x="-3" y="624" type="line"/>
    </contour>
    <component base="H" xOffset="9"/>
  </outline>
</glyph>
<glyph name="kgreenlandic" format="1">
  <advance width="536"/>
  <unicode hex="0138"/>
  <outline>
    <contour>
      <point x="42" y="0" type="line"/>
      <point x="232" y="0" type="line"/>
      <point x="232" y="210" type="line"/>
      <point x="242" y="210" type="line"/>
      <point x="347" y="0" type="line"/>
      <point x="553" y="0" type="line"/>
      <point x="391" y="271" type="line"/>
      <point x="365" y="277" type="line"/>
      <point x="365" y="281" type="line"/>
      <point x="391" y="287" type="line"/>
      <point x="535" y="540" type="line"/>
      <point x="331" y="540" type="line"/>
      <point x="242" y="347" type="line"/>
      <point x="232" y="347" type="line"/>
      <point x="232" y="540" type="line"/>
      <point x="42" y="540" type="line"/>
    </contour>
  </outline>
</glyph>
<glyph name="tbar" format="1">
  <advance width="387"/>
  <unicode hex="0167"/>
  <outline>
    <contour>
      <point x="20" y="205" type="line"/>
      <point x="349" y="205" type="line"/>
      <point x="349" y="311" type="line"/>
      <point x="20" y="311" type="line"/>
    </contour>
    <component base="t" xOffset="1"/>
  </outline>
</glyph>
<glyph name="Aringacute" format="1">
  <advance width="642"/>
  <unicode hex="01FA"/>
  <outline>
    <contour>
      <point x="-5" y="0" type="line"/>
      <point x="178" y="0" type="line"/>
      <point x="214" y="156" type="line"/>
      <point x="427" y="156" type="line"/>
      <point x="464" y="0" type="line"/>
      <point x="647" y="0" type="line"/>
      <point x="647" y="7" type="line"/>
      <point x="472" y="681" type="line"/>
      <point x="486" y="703"/>
      <point x="493" y="730"/>
      <point x="493" y="760" type="curve" smooth="yes"/>
      <point x="493" y="817"/>
      <point x="466" y="863"/>
      <point x="421" y="889" type="curve"/>
      <point x="509" y="1030" type="line"/>
      <point x="315" y="1030" type="line"/>
      <point x="274" y="911" type="line"/>
      <point x="195" y="896"/>
      <point x="146" y="839"/>
      <point x="146" y="760" type="curve" smooth="yes"/>
      <point x="146" y="728"/>
      <point x="154" y="701"/>
      <point x="169" y="677" type="curve"/>
      <point x="-5" y="7" type="line"/>
    </contour>
    <contour>
      <point x="319" y="694" type="curve" smooth="yes"/>
      <point x="278" y="694"/>
      <point x="250" y="720"/>
      <point x="250" y="760" type="curve" smooth="yes"/>
      <point x="250" y="800"/>
      <point x="277" y="826"/>
      <point x="319" y="826" type="curve" smooth="yes"/>
      <point x="361" y="826"/>
      <point x="389" y="800"/>
      <point x="389" y="760" type="curve" smooth="yes"/>
      <point x="389" y="721"/>
      <point x="361" y="694"/>
    </contour>
    <contour>
      <point x="252" y="318" type="line"/>
      <point x="291" y="490" type="line"/>
      <point x="313" y="598" type="line"/>
      <point x="329" y="598" type="line"/>
      <point x="351" y="490" type="line"/>
      <point x="389" y="318" type="line"/>
    </contour>
  </outline>
</glyph>
<glyph name="dotlessj" format="1">
  <advance width="272"/>
  <unicode hex="0237"/>
  <outline>
    <contour>
      <point x="134" y="600" type="move" name="top"/>
    </contour>
    <contour>
      <point x="140" y="-220" type="line"/>
      <point x="194" y="-120"/>
      <point x="220" y="-28"/>
      <point x="230" y="68" type="curve"/>
      <point x="230" y="540" type="line"/>
      <point x="40" y="540" type="line"/>
      <point x="44" y="325"/>
      <point x="45" y="255"/>
      <point x="45" y="190" type="curve" smooth="yes"/>
      <point x="45" y="-3"/>
      <point x="36" y="-70"/>
      <point x="2" y="-199" type="curve"/>
    </contour>
  </outline>
</glyph>
<glyph name="schwa" format="1">
  <advance width="540"/>
  <unicode hex="0259"/>
  <outline>
    <contour>
      <point x="246" y="549" type="curve" smooth="yes"/>
      <point x="184" y="549"/>
      <point x="96" y="537"/>
      <point x="40" y="518" type="curve"/>
      <point x="45" y="381" type="line"/>
      <point x="110" y="395"/>
      <point x="180" y="404"/>
      <point x="229" y="404" type="curve" smooth="yes"/>
      <point x="321" y="404"/>
      <point x="337" y="386"/>
      <point x="337" y="272" type="curve" smooth="yes"/>
      <point x="337" y="162"/>
      <point x="320" y="127"/>
      <point x="256" y="127" type="curve" smooth="yes"/>
      <point x="202" y="127"/>
      <point x="184" y="153"/>
      <point x="184" y="232" type="curve"/>
      <point x="162" y="221" type="line"/>
      <point x="434" y="221" type="line"/>
      <point x="434" y="337" type="line"/>
      <point x="29" y="337" type="line"/>
      <point x="23" y="306"/>
      <point x="23" y="284"/>
      <point x="23" y="255" type="curve" smooth="yes"/>
      <point x="23" y="70"/>
      <point x="89" y="-9"/>
      <point x="246" y="-9" type="curve" smooth="yes"/>
      <point x="423" y="-9"/>
      <point x="516" y="89"/>
      <point x="516" y="274" type="curve" smooth="yes"/>
      <point x="516" y="456"/>
      <point x="426" y="549"/>
    </contour>
  </outline>
</glyph>
<glyph name="tilde" format="1">
  <advance width="434"/>
  <unicode hex="02DC"/>
  <outline>
    <contour>
      <point x="204" y="600" type="move" name="_top"/>
    </contour>
    <contour>
      <point x="44" y="618" type="line"/>
      <point x="69" y="650"/>
      <point x="89" y="659"/>
      <point x="112" y="659" type="curve" smooth="yes"/>
      <point x="164" y="659"/>
      <point x="216" y="602"/>
      <point x="268" y="602" type="curve" smooth="yes"/>
      <point x="320" y="602"/>
      <point x="375" y="636"/>
      <point x="417" y="719" type="curve"/>
      <point x="383" y="760" type="line"/>
      <point x="358" y="727"/>
      <point x="338" y="717"/>
      <point x="315" y="717" type="curve" smooth="yes"/>
      <point x="262" y="717"/>
      <point x="211" y="775"/>
      <point x="159" y="775" type="curve" smooth="yes"/>
      <point x="108" y="775"/>
      <point x="52" y="738"/>
      <point x="10" y="658" type="curve"/>
    </contour>
  </outline>
</glyph>
<glyph name="uni0394" format="1">
  <advance width="682"/>
  <unicode hex="0394"/>
  <outline>
    <contour>
      <point x="-13" y="0" type="line"/>
      <point x="695" y="0" type="line"/>
      <point x="466" y="740" type="line"/>
      <point x="216" y="740" type="line"/>
    </contour>
    <contour>
      <point x="212" y="162" type="line"/>
      <point x="341" y="578" type="line"/>
      <point x="470" y="162" type="line"/>
    </contour>
  </outline>
</glyph>
<glyph name="uni03A9" format="1">
  <advance width="744"/>
  <unicode hex="03A9"/>
  <outline>
    <contour>
      <point x="28" y="0" type="line"/>
      <point x="331" y="0" type="line"/>
      <point x="331" y="132" type="line"/>
      <point x="302" y="167"/>
      <point x="234" y="231"/>
      <point x="234" y="438" type="curve" smooth="yes"/>
      <point x="234" y="539"/>
      <point x="288" y="606"/>
      <point x="372" y="606" type="curve" smooth="yes"/>
      <point x="459" y="606"/>
      <point x="516" y="539"/>
      <point x="516" y="438" type="curve" smooth="yes"/>
      <point x="516" y="231"/>
      <point x="444" y="167"/>
      <point x="413" y="132" type="curve"/>
      <point x="413" y="0" type="line"/>
      <point x="716" y="0" type="line"/>
      <point x="716" y="162" type="line"/>
      <point x="533" y="144" type="line"/>
      <point x="613" y="190"/>
      <point x="705" y="281"/>
      <point x="705" y="438" type="curve" smooth="yes"/>
      <point x="705" y="626"/>
      <point x="573" y="750"/>
      <point x="372" y="750" type="curve" smooth="yes"/>
      <point x="171" y="750"/>
      <point x="39" y="626"/>
      <point x="39" y="438" type="curve" smooth="yes"/>
      <point x="39" y="282"/>
      <point x="129" y="191"/>
      <point x="209" y="146" type="curve"/>
      <point x="28" y="162" type="line"/>
    </contour>
  </outline>
</glyph>
<glyph name="dagger" format="1">
  <advance width="518"/>
  <unicode hex="2020"/>
  <outline>
    <contour>
      <point x="213" y="65" type="line"/>
      <point x="305" y="65" type="line"/>
      <point x="340" y="265" type="line"/>
      <point x="340" y="345" type="line"/>
      <point x="305" y="491" type="line"/>
      <point x="493" y="469" type="line"/>
      <point x="497" y="469" type="line"/>
      <point x="497" y="605" type="line"/>
      <point x="493" y="605" type="line"/>
      <point x="305" y="583" type="line"/>
      <point x="340" y="729" type="line"/>
      <point x="340" y="808" type="line"/>
      <point x="177" y="808" type="line"/>
      <point x="177" y="729" type="line"/>
      <point x="213" y="583" type="line"/>
      <point x="25" y="605" type="line"/>
      <point x="21" y="605" type="line"/>
      <point x="21" y="469" type="line"/>
      <point x="25" y="469" type="line"/>
      <point x="213" y="491" type="line"/>
      <point x="177" y="345" type="line"/>
      <point x="177" y="265" type="line"/>
    </contour>
  </outline>
</glyph>
<glyph name="bullet" format="1">
  <advance width="349"/>
  <unicode hex="2022"/>
  <outline>
    <contour>
      <point x="175" y="244" type="curve" smooth="yes"/>
      <point x="253" y="244"/>
      <point x="305" y="288"/>
      <point x="305" y="370" type="curve" smooth="yes"/>
      <point x="305" y="452"/>
      <point x="253" y="496"/>
      <point x="175" y="496" type="curve" smooth="yes"/>
      <point x="96" y="496"/>
      <point x="44" y="452"/>
      <point x="44" y="370" type="curve" smooth="yes"/>
      <point x="44" y="288"/>
      <point x="96" y="244"/>
    </contour>
  </outline>
</glyph>
<glyph name="zerosuperior" format="1">
  <advance width="494"/>
  <unicode hex="2070"/>
  <note>
    420
  </note>
  <outline>
    <contour>
      <point x="247" y="293" type="curve"/>
      <point x="394" y="293"/>
      <point x="473" y="391"/>
      <point x="473" y="573" type="curve" smooth="yes"/>
      <point x="473" y="755"/>
      <point x="394" y="854"/>
      <point x="247" y="854" type="curve" smooth="yes"/>
      <point x="101" y="854"/>
      <point x="21" y="755"/>
      <point x="21" y="573" type="curve" smooth="yes"/>
      <point x="21" y="391"/>
      <point x="101" y="293"/>
    </contour>
    <contour>
      <point x="247" y="428" type="curve" smooth="yes"/>
      <point x="202" y="428"/>
      <point x="186" y="467"/>
      <point x="186" y="573" type="curve" smooth="yes"/>
      <point x="186" y="680"/>
      <point x="202" y="719"/>
      <point x="247" y="719" type="curve" smooth="yes"/>
      <point x="293" y="719"/>
      <point x="308" y="681"/>
      <point x="308" y="573" type="curve" smooth="yes"/>
      <point x="308" y="465"/>
      <point x="293" y="428"/>
    </contour>
  </outline>
</glyph>
<glyph name="eightsuperior" format="1">
  <advance width="443"/>
  <unicode hex="2078"/>
  <outline>
    <contour>
      <point x="221" y="298" type="curve" smooth="yes"/>
      <point x="348" y="298"/>
      <point x="423" y="360"/>
      <point x="423" y="463" type="curve" smooth="yes"/>
      <point x="423" y="523"/>
      <point x="402" y="564"/>
      <point x="357" y="593" type="curve"/>
      <point x="395" y="618"/>
      <point x="409" y="648"/>
      <point x="409" y="702" type="curve" smooth="yes"/>
      <point x="409" y="792"/>
      <point x="334" y="853"/>
      <point x="221" y="853" type="curve" smooth="yes"/>
      <point x="108" y="853"/>
      <point x="33" y="792"/>
      <point x="33" y="702" type="curve" smooth="yes"/>
      <point x="33" y="645"/>
      <point x="52" y="603"/>
      <point x="90" y="574" type="curve"/>
      <point x="42" y="540"/>
      <point x="20" y="498"/>
      <point x="20" y="439" type="curve" smooth="yes"/>
      <point x="20" y="351"/>
      <point x="95" y="298"/>
    </contour>
    <contour>
      <point x="221" y="410" type="curve" smooth="yes"/>
      <point x="179" y="410"/>
      <point x="156" y="430"/>
      <point x="156" y="464" type="curve" smooth="yes"/>
      <point x="156" y="488"/>
      <point x="170" y="507"/>
      <point x="205" y="530" type="curve"/>
      <point x="223" y="523" type="line" smooth="yes"/>
      <point x="269" y="504"/>
      <point x="287" y="486"/>
      <point x="287" y="462" type="curve" smooth="yes"/>
      <point x="287" y="427"/>
      <point x="263" y="410"/>
    </contour>
    <contour>
      <point x="239" y="627" type="curve"/>
      <point x="227" y="630" type="line" smooth="yes"/>
      <point x="184" y="642"/>
      <point x="164" y="658"/>
      <point x="164" y="688" type="curve" smooth="yes"/>
      <point x="164" y="717"/>
      <point x="185" y="737"/>
      <point x="221" y="737" type="curve" smooth="yes"/>
      <point x="257" y="737"/>
      <point x="278" y="722"/>
      <point x="278" y="691" type="curve" smooth="yes"/>
      <point x="278" y="661"/>
      <point x="265" y="641"/>
    </contour>
  </outline>
</glyph>
<glyph name="ninesuperior" format="1">
  <advance width="446"/>
  <unicode hex="2079"/>
  <outline>
    <contour>
      <point x="156" y="293" type="curve" smooth="yes"/>
      <point x="335" y="293"/>
      <point x="425" y="395"/>
      <point x="425" y="598" type="curve" smooth="yes"/>
      <point x="425" y="761"/>
      <point x="351" y="854"/>
      <point x="220" y="854" type="curve" smooth="yes"/>
      <point x="92" y="854"/>
      <point x="13" y="779"/>
      <point x="13" y="658" type="curve" smooth="yes"/>
      <point x="13" y="562"/>
      <point x="80" y="499"/>
      <point x="184" y="499" type="curve" smooth="yes"/>
      <point x="219" y="499"/>
      <point x="250" y="507"/>
      <point x="273" y="523" type="curve"/>
      <point x="260" y="448"/>
      <point x="226" y="419"/>
      <point x="152" y="419" type="curve" smooth="yes"/>
      <point x="131" y="419"/>
      <point x="102" y="423"/>
      <point x="61" y="431" type="curve"/>
      <point x="42" y="309" type="line"/>
      <point x="89" y="298"/>
      <point x="127" y="293"/>
    </contour>
    <contour>
      <point x="220" y="598" type="curve" smooth="yes"/>
      <point x="179" y="598"/>
      <point x="162" y="616"/>
      <point x="162" y="662" type="curve" smooth="yes"/>
      <point x="162" y="701"/>
      <point x="180" y="720"/>
      <point x="220" y="720" type="curve" smooth="yes"/>
      <point x="257" y="720"/>
      <point x="275" y="692"/>
      <point x="279" y="624" type="curve"/>
      <point x="262" y="608"/>
      <point x="239" y="598"/>
    </contour>
  </outline>
</glyph>
<glyph name="oneinferior" format="1">
  <advance width="343"/>
  <unicode hex="2081"/>
  <outline>
    <contour>
      <point x="129" y="-100" type="line"/>
      <point x="294" y="-100" type="line"/>
      <point x="294" y="446" type="line"/>
      <point x="170" y="446" type="line"/>
      <point x="6" y="349" type="line"/>
      <point x="1" y="325" type="line"/>
      <point x="24" y="255" type="line"/>
      <point x="47" y="255" type="line"/>
      <point x="129" y="278" type="line"/>
    </contour>
  </outline>
</glyph>
<glyph name="threeinferior" format="1">
  <advance width="388"/>
  <unicode hex="2083"/>
  <outline>
    <contour>
      <point x="144" y="-107" type="curve" smooth="yes"/>
      <point x="286" y="-107"/>
      <point x="368" y="-48"/>
      <point x="368" y="55" type="curve" smooth="yes"/>
      <point x="368" y="117"/>
      <point x="334" y="163"/>
      <point x="274" y="182" type="curve"/>
      <point x="326" y="202"/>
      <point x="353" y="247"/>
      <point x="353" y="315" type="curve" smooth="yes"/>
      <point x="353" y="412"/>
      <point x="290" y="454"/>
      <point x="142" y="454" type="curve" smooth="yes"/>
      <point x="99" y="454"/>
      <point x="63" y="450"/>
      <point x="27" y="441" type="curve"/>
      <point x="27" y="309" type="line"/>
      <point x="36" y="309" type="line"/>
      <point x="73" y="316"/>
      <point x="103" y="319"/>
      <point x="128" y="319" type="curve" smooth="yes"/>
      <point x="173" y="319"/>
      <point x="193" y="306"/>
      <point x="193" y="277" type="curve" smooth="yes"/>
      <point x="193" y="246"/>
      <point x="173" y="235"/>
      <point x="117" y="235" type="curve" smooth="yes"/>
      <point x="84" y="235" type="line"/>
      <point x="84" y="115" type="line"/>
      <point x="118" y="115" type="line" smooth="yes"/>
      <point x="188" y="115"/>
      <point x="208" y="105"/>
      <point x="208" y="71" type="curve" smooth="yes"/>
      <point x="208" y="40"/>
      <point x="184" y="28"/>
      <point x="119" y="28" type="curve" smooth="yes"/>
      <point x="91" y="28"/>
      <point x="59" y="33"/>
      <point x="37" y="40" type="curve"/>
      <point x="27" y="40" type="line"/>
      <point x="27" y="-96" type="line"/>
      <point x="66" y="-104"/>
      <point x="100" y="-107"/>
    </contour>
  </outline>
</glyph>
<glyph name="eightinferior" format="1">
  <advance width="443"/>
  <unicode hex="2088"/>
  <outline>
    <contour>
      <point x="221" y="-102" type="curve" smooth="yes"/>
      <point x="348" y="-102"/>
      <point x="423" y="-40"/>
      <point x="423" y="63" type="curve" smooth="yes"/>
      <point x="423" y="123"/>
      <point x="402" y="164"/>
      <point x="357" y="193" type="curve"/>
      <point x="395" y="218"/>
      <point x="409" y="248"/>
      <point x="409" y="302" type="curve" smooth="yes"/>
      <point x="409" y="392"/>
      <point x="334" y="453"/>
      <point x="221" y="453" type="curve" smooth="yes"/>
      <point x="108" y="453"/>
      <point x="33" y="392"/>
      <point x="33" y="302" type="curve" smooth="yes"/>
      <point x="33" y="245"/>
      <point x="52" y="203"/>
      <point x="90" y="174" type="curve"/>
      <point x="42" y="140"/>
      <point x="20" y="98"/>
      <point x="20" y="39" type="curve" smooth="yes"/>
      <point x="20" y="-49"/>
      <point x="95" y="-102"/>
    </contour>
    <contour>
      <point x="221" y="10" type="curve" smooth="yes"/>
      <point x="179" y="10"/>
      <point x="156" y="30"/>
      <point x="156" y="64" type="curve" smooth="yes"/>
      <point x="156" y="88"/>
      <point x="170" y="107"/>
      <point x="205" y="130" type="curve"/>
      <point x="223" y="123" type="line" smooth="yes"/>
      <point x="269" y="104"/>
      <point x="287" y="86"/>
      <point x="287" y="62" type="curve" smooth="yes"/>
      <point x="287" y="27"/>
      <point x="263" y="10"/>
    </contour>
    <contour>
      <point x="239" y="227" type="curve"/>
      <point x="227" y="230" type="line" smooth="yes"/>
      <point x="184" y="242"/>
      <point x="164" y="258"/>
      <point x="164" y="288" type="curve" smooth="yes"/>
      <point x="164" y="317"/>
      <point x="185" y="337"/>
      <point x="221" y="337" type="curve" smooth="yes"/>
      <point x="257" y="337"/>
      <point x="278" y="322"/>
      <point x="278" y="291" type="curve" smooth="yes"/>
      <point x="278" y="261"/>
      <point x="265" y="241"/>
    </contour>
  </outline>
</glyph>
<glyph name="uni20A6" format="1">
  <advance width="892"/>
  <unicode hex="20A6"/>
  <outline>
    <contour>
      <point x="29" y="190" type="line"/>
      <point x="863" y="190" type="line"/>
      <point x="863" y="294" type="line"/>
      <point x="29" y="294" type="line"/>
    </contour>
    <contour>
      <point x="29" y="446" type="line"/>
      <point x="863" y="446" type="line"/>
      <point x="863" y="550" type="line"/>
      <point x="29" y="550" type="line"/>
    </contour>
    <component base="N" xOffset="103"/>
  </outline>
</glyph>
<glyph name="uni20BA" format="1">
  <advance width="602"/>
  <unicode hex="20BA"/>
  <outline>
    <contour>
      <point x="29" y="416" type="line"/>
      <point x="500" y="516" type="line"/>
      <point x="500" y="621" type="line"/>
      <point x="29" y="521" type="line"/>
    </contour>
    <contour>
      <point x="29" y="247" type="line"/>
      <point x="500" y="347" type="line"/>
      <point x="500" y="452" type="line"/>
      <point x="29" y="352" type="line"/>
    </contour>
    <contour>
      <point x="143" y="0" type="line"/>
      <point x="372" y="0" type="line" smooth="yes"/>
      <point x="568" y="0"/>
      <point x="581" y="163"/>
      <point x="581" y="270" type="curve"/>
      <point x="388" y="270" type="line"/>
      <point x="388" y="195"/>
      <point x="383" y="163"/>
      <point x="372" y="163" type="curve" smooth="yes"/>
      <point x="338" y="163" type="line"/>
      <point x="338" y="740" type="line"/>
      <point x="143" y="740" type="line"/>
    </contour>
  </outline>
</glyph>
<glyph name="Omega" format="1">
  <advance width="752"/>
  <unicode hex="2126"/>
  <outline>
    <contour>
      <point x="32" y="0" type="line"/>
      <point x="335" y="0" type="line"/>
      <point x="335" y="132" type="line"/>
      <point x="306" y="167"/>
      <point x="238" y="231"/>
      <point x="238" y="438" type="curve" smooth="yes"/>
      <point x="238" y="539"/>
      <point x="292" y="606"/>
      <point x="376" y="606" type="curve" smooth="yes"/>
      <point x="463" y="606"/>
      <point x="520" y="539"/>
      <point x="520" y="438" type="curve" smooth="yes"/>
      <point x="520" y="231"/>
      <point x="448" y="167"/>
      <point x="417" y="132" type="curve"/>
      <point x="417" y="0" type="line"/>
      <point x="720" y="0" type="line"/>
      <point x="720" y="162" type="line"/>
      <point x="537" y="144" type="line"/>
      <point x="617" y="190"/>
      <point x="709" y="281"/>
      <point x="709" y="438" type="curve" smooth="yes"/>
      <point x="709" y="626"/>
      <point x="577" y="750"/>
      <point x="376" y="750" type="curve" smooth="yes"/>
      <point x="175" y="750"/>
      <point x="43" y="626"/>
      <point x="43" y="438" type="curve" smooth="yes"/>
      <point x="43" y="282"/>
      <point x="133" y="191"/>
      <point x="213" y="146" type="curve"/>
      <point x="32" y="162" type="line"/>
    </contour>
  </outline>
</glyph>
<glyph name="arrowdown" format="1">
  <advance width="702"/>
  <unicode hex="2193"/>
  <outline>
    <contour>
      <point x="319" y="126" type="line"/>
      <point x="383" y="126" type="line"/>
      <point x="686" y="430" type="line"/>
      <point x="571" y="545" type="line"/>
      <point x="435" y="386" type="line"/>
      <point x="435" y="689" type="line"/>
      <point x="267" y="689" type="line"/>
      <point x="267" y="386" type="line"/>
      <point x="131" y="545" type="line"/>
      <point x="16" y="430" type="line"/>
    </contour>
  </outline>
</glyph>
<glyph name="partialdiff" format="1">
  <advance width="554"/>
  <unicode hex="2202"/>
  <outline>
    <contour>
      <point x="278" y="-4" type="curve" smooth="yes"/>
      <point x="431" y="-4"/>
      <point x="524" y="123"/>
      <point x="524" y="333" type="curve" smooth="yes"/>
      <point x="524" y="614"/>
      <point x="430" y="755"/>
      <point x="257" y="755" type="curve" smooth="yes"/>
      <point x="191" y="755"/>
      <point x="124" y="732"/>
      <point x="78" y="690" type="curve"/>
      <point x="121" y="570" type="line"/>
      <point x="158" y="593"/>
      <point x="205" y="608"/>
      <point x="240" y="608" type="curve" smooth="yes"/>
      <point x="293" y="608"/>
      <point x="318" y="576"/>
      <point x="329" y="475" type="curve"/>
      <point x="299" y="497"/>
      <point x="267" y="510"/>
      <point x="232" y="510" type="curve" smooth="yes"/>
      <point x="102" y="510"/>
      <point x="23" y="407"/>
      <point x="23" y="270" type="curve" smooth="yes"/>
      <point x="23" y="112"/>
      <point x="104" y="-4"/>
    </contour>
    <contour>
      <point x="274" y="132" type="curve" smooth="yes"/>
      <point x="235" y="132"/>
      <point x="213" y="181"/>
      <point x="213" y="270" type="curve" smooth="yes"/>
      <point x="213" y="336"/>
      <point x="249" y="370"/>
      <point x="286" y="370" type="curve" smooth="yes"/>
      <point x="302" y="370"/>
      <point x="319" y="365"/>
      <point x="335" y="355" type="curve"/>
      <point x="335" y="310" type="line" smooth="yes"/>
      <point x="335" y="162"/>
      <point x="316" y="132"/>
    </contour>
  </outline>
</glyph>
<glyph name="Delta" format="1">
  <advance width="740"/>
  <unicode hex="2206"/>
  <outline>
    <contour>
      <point x="16" y="0" type="line"/>
      <point x="724" y="0" type="line"/>
      <point x="495" y="740" type="line"/>
      <point x="245" y="740" type="line"/>
    </contour>
    <contour>
      <point x="241" y="162" type="line"/>
      <point x="370" y="578" type="line"/>
      <point x="499" y="162" type="line"/>
    </contour>
  </outline>
</glyph>
<glyph name="radical" format="1">
  <advance width="691"/>
  <unicode hex="221A"/>
  <outline>
    <contour>
      <point x="275" y="0" type="line"/>
      <point x="490" y="0" type="line"/>
      <point x="697" y="858" type="line"/>
      <point x="524" y="858" type="line"/>
      <point x="369" y="215" type="line"/>
      <point x="228" y="569" type="line"/>
      <point x="-8" y="473" type="line"/>
      <point x="56" y="317" type="line"/>
      <point x="136" y="350" type="line"/>
    </contour>
  </outline>
</glyph>
<glyph name="approxequal" format="1">
  <advance width="530"/>
  <unicode hex="2248"/>
  <outline>
    <contour>
      <point x="44" y="363" type="line"/>
      <point x="87" y="384"/>
      <point x="129" y="398"/>
      <point x="181" y="398" type="curve" smooth="yes"/>
      <point x="246" y="398"/>
      <point x="292" y="360"/>
      <point x="356" y="360" type="curve" smooth="yes"/>
      <point x="408" y="360"/>
      <point x="450" y="386"/>
      <point x="489" y="407" type="curve"/>
      <point x="489" y="528" type="line"/>
      <point x="448" y="507"/>
      <point x="408" y="492"/>
      <point x="356" y="492" type="curve" smooth="yes"/>
      <point x="292" y="492"/>
      <point x="246" y="530"/>
      <point x="181" y="530" type="curve" smooth="yes"/>
      <point x="129" y="530"/>
      <point x="87" y="505"/>
      <point x="44" y="487" type="curve"/>
    </contour>
    <contour>
      <point x="44" y="171" type="line"/>
      <point x="87" y="192"/>
      <point x="129" y="206"/>
      <point x="181" y="206" type="curve" smooth="yes"/>
      <point x="246" y="206"/>
      <point x="292" y="168"/>
      <point x="356" y="168" type="curve" smooth="yes"/>
      <point x="408" y="168"/>
      <point x="450" y="194"/>
      <point x="489" y="215" type="curve"/>
      <point x="489" y="336" type="line"/>
      <point x="448" y="315"/>
      <point x="408" y="300"/>
      <point x="356" y="300" type="curve" smooth="yes"/>
      <point x="292" y="300"/>
      <point x="246" y="338"/>
      <point x="181" y="338" type="curve" smooth="yes"/>
      <point x="129" y="338"/>
      <point x="87" y="313"/>
      <point x="44" y="295" type="curve"/>
    </contour>
  </outline>
</glyph>
<glyph name="greaterequal" format="1">
  <advance width="569"/>
  <unicode hex="2265"/>
  <outline>
    <contour>
      <point x="47" y="216" type="line"/>
      <point x="530" y="373" type="line"/>
      <point x="530" y="482" type="line"/>
      <point x="391" y="452" type="line"/>
      <point x="47" y="363" type="line"/>
    </contour>
    <contour>
      <point x="47" y="515" type="line"/>
      <point x="391" y="426" type="line"/>
      <point x="530" y="396" type="line"/>
      <point x="530" y="505" type="line"/>
      <point x="47" y="662" type="line"/>
    </contour>
    <contour>
      <point x="47" y="56" type="line"/>
      <point x="531" y="56" type="line"/>
      <point x="531" y="190" type="line"/>
      <point x="47" y="190" type="line"/>
    </contour>
  </outline>
</glyph>
<glyph name="Abreve.sc" format="1">
  <advance width="599"/>
  <outline>
    <contour>
      <point x="300" y="613" type="curve" smooth="yes"/>
      <point x="416" y="613"/>
      <point x="476" y="673"/>
      <point x="476" y="768" type="curve"/>
      <point x="356" y="768" type="line"/>
      <point x="356" y="707"/>
      <point x="345" y="690"/>
      <point x="300" y="690" type="curve" smooth="yes"/>
      <point x="253" y="690"/>
      <point x="243" y="707"/>
      <point x="243" y="768" type="curve"/>
      <point x="124" y="768" type="line"/>
      <point x="124" y="672"/>
      <point x="183" y="613"/>
    </contour>
    <contour>
      <point x="-2" y="0" type="line"/>
      <point x="170" y="0" type="line"/>
      <point x="202" y="104" type="line"/>
      <point x="396" y="104" type="line"/>
      <point x="428" y="0" type="line"/>
      <point x="601" y="0" type="line"/>
      <point x="601" y="6" type="line"/>
      <point x="439" y="577" type="line"/>
      <point x="160" y="577" type="line"/>
      <point x="-2" y="6" type="line"/>
    </contour>
    <contour>
      <point x="229" y="225" type="line"/>
      <point x="272" y="370" type="line"/>
      <point x="292" y="448" type="line"/>
      <point x="307" y="448" type="line"/>
      <point x="326" y="370" type="line"/>
      <point x="369" y="225" type="line"/>
    </contour>
  </outline>
</glyph>
<glyph name="Adblgrave.sc" format="1">
  <advance width="599"/>
  <outline>
    <contour>
      <point x="-2" y="0" type="line"/>
      <point x="170" y="0" type="line"/>
      <point x="202" y="104" type="line"/>
      <point x="396" y="104" type="line"/>
      <point x="428" y="0" type="line"/>
      <point x="601" y="0" type="line"/>
      <point x="601" y="6" type="line"/>
      <point x="439" y="577" type="line"/>
      <point x="160" y="577" type="line"/>
      <point x="-2" y="6" type="line"/>
    </contour>
    <contour>
      <point x="229" y="225" type="line"/>
      <point x="272" y="370" type="line"/>
      <point x="292" y="448" type="line"/>
      <point x="307" y="448" type="line"/>
      <point x="326" y="370" type="line"/>
      <point x="369" y="225" type="line"/>
    </contour>
    <contour>
      <point x="172" y="618" type="line"/>
      <point x="265" y="625" type="line"/>
      <point x="208" y="786" type="line"/>
      <point x="58" y="786" type="line"/>
    </contour>
    <contour>
      <point x="355" y="618" type="line"/>
      <point x="448" y="625" type="line"/>
      <point x="391" y="786" type="line"/>
      <point x="242" y="786" type="line"/>
    </contour>
  </outline>
</glyph>
<glyph name="Ainvertedbreve.sc" format="1">
  <advance width="599"/>
  <outline>
    <contour>
      <point x="127" y="621" type="curve"/>
      <point x="246" y="621" type="line"/>
      <point x="246" y="681"/>
      <point x="256" y="698"/>
      <point x="303" y="698" type="curve" smooth="yes"/>
      <point x="348" y="698"/>
      <point x="359" y="681"/>
      <point x="359" y="621" type="curve"/>
      <point x="479" y="621" type="line"/>
      <point x="479" y="717"/>
      <point x="419" y="776"/>
      <point x="303" y="776" type="curve" smooth="yes"/>
      <point x="186" y="776"/>
      <point x="127" y="717"/>
    </contour>
    <contour>
      <point x="-2" y="0" type="line"/>
      <point x="170" y="0" type="line"/>
      <point x="202" y="104" type="line"/>
      <point x="396" y="104" type="line"/>
      <point x="428" y="0" type="line"/>
      <point x="601" y="0" type="line"/>
      <point x="601" y="6" type="line"/>
      <point x="439" y="577" type="line"/>
      <point x="160" y="577" type="line"/>
      <point x="-2" y="6" type="line"/>
    </contour>
    <contour>
      <point x="229" y="225" type="line"/>
      <point x="272" y="370" type="line"/>
      <point x="292" y="448" type="line"/>
      <point x="307" y="448" type="line"/>
      <point x="326" y="370" type="line"/>
      <point x="369" y="225" type="line"/>
    </contour>
  </outline>
</glyph>
<glyph name="Amacron.sc" format="1">
  <advance width="599"/>
  <outline>
    <contour>
      <point x="-2" y="0" type="line"/>
      <point x="170" y="0" type="line"/>
      <point x="202" y="104" type="line"/>
      <point x="396" y="104" type="line"/>
      <point x="428" y="0" type="line"/>
      <point x="601" y="0" type="line"/>
      <point x="601" y="6" type="line"/>
      <point x="439" y="577" type="line"/>
      <point x="160" y="577" type="line"/>
      <point x="-2" y="6" type="line"/>
    </contour>
    <contour>
      <point x="229" y="225" type="line"/>
      <point x="272" y="370" type="line"/>
      <point x="292" y="448" type="line"/>
      <point x="307" y="448" type="line"/>
      <point x="326" y="370" type="line"/>
      <point x="369" y="225" type="line"/>
    </contour>
    <contour>
      <point x="142" y="651" type="line"/>
      <point x="462" y="651" type="line"/>
      <point x="462" y="766" type="line"/>
      <point x="142" y="766" type="line"/>
    </contour>
  </outline>
</glyph>
<glyph name="B.sc" format="1">
  <advance width="564"/>
  <outline>
    <contour>
      <point x="234" y="-8" type="curve" smooth="yes"/>
      <point x="438" y="-8"/>
      <point x="542" y="50"/>
      <point x="542" y="162" type="curve" smooth="yes"/>
      <point x="542" y="236"/>
      <point x="503" y="281"/>
      <point x="429" y="296" type="curve"/>
      <point x="429" y="299" type="line"/>
      <point x="493" y="316"/>
      <point x="525" y="354"/>
      <point x="525" y="416" type="curve" smooth="yes"/>
      <point x="525" y="534"/>
      <point x="441" y="585"/>
      <point x="246" y="585" type="curve" smooth="yes"/>
      <point x="191" y="585"/>
      <point x="126" y="581"/>
      <point x="48" y="573" type="curve"/>
      <point x="48" y="4" type="line"/>
      <point x="110" y="-4"/>
      <point x="173" y="-8"/>
    </contour>
    <contour>
      <point x="267" y="126" type="curve" smooth="yes"/>
      <point x="235" y="126"/>
      <point x="227" y="126"/>
      <point x="216" y="128" type="curve"/>
      <point x="216" y="229" type="line"/>
      <point x="266" y="229" type="line" smooth="yes"/>
      <point x="339" y="229"/>
      <point x="366" y="217"/>
      <point x="366" y="175" type="curve" smooth="yes"/>
      <point x="366" y="143"/>
      <point x="330" y="126"/>
    </contour>
    <contour>
      <point x="216" y="349" type="line"/>
      <point x="216" y="448" type="line"/>
      <point x="236" y="450"/>
      <point x="255" y="451"/>
      <point x="269" y="451" type="curve" smooth="yes"/>
      <point x="321" y="451"/>
      <point x="345" y="437"/>
      <point x="345" y="403" type="curve" smooth="yes"/>
      <point x="345" y="361"/>
      <point x="325" y="349"/>
      <point x="263" y="349" type="curve" smooth="yes"/>
    </contour>
  </outline>
</glyph>
<glyph name="Ccedilla.sc" format="1">
  <advance width="474"/>
  <outline>
    <contour>
      <point x="250" y="-172" type="curve" smooth="yes"/>
      <point x="323" y="-172"/>
      <point x="361" y="-137"/>
      <point x="361" y="-89" type="curve" smooth="yes"/>
      <point x="361" y="-58"/>
      <point x="353" y="-35"/>
      <point x="334" y="-6" type="curve"/>
      <point x="379" y="-4"/>
      <point x="424" y="5"/>
      <point x="447" y="15" type="curve"/>
      <point x="447" y="154" type="line"/>
      <point x="412" y="145"/>
      <point x="374" y="141"/>
      <point x="331" y="141" type="curve" smooth="yes"/>
      <point x="242" y="141"/>
      <point x="213" y="156"/>
      <point x="213" y="288" type="curve" smooth="yes"/>
      <point x="213" y="418"/>
      <point x="243" y="437"/>
      <point x="331" y="437" type="curve" smooth="yes"/>
      <point x="362" y="437"/>
      <point x="402" y="434"/>
      <point x="447" y="427" type="curve"/>
      <point x="447" y="569" type="line"/>
      <point x="395" y="579"/>
      <point x="348" y="585"/>
      <point x="304" y="585" type="curve" smooth="yes"/>
      <point x="124" y="585"/>
      <point x="25" y="487"/>
      <point x="25" y="289" type="curve" smooth="yes"/>
      <point x="25" y="121"/>
      <point x="93" y="27"/>
      <point x="222" y="1" type="curve"/>
      <point x="238" y="-23"/>
      <point x="248" y="-44"/>
      <point x="248" y="-57" type="curve" smooth="yes"/>
      <point x="248" y="-60"/>
      <point x="241" y="-68"/>
      <point x="222" y="-68" type="curve" smooth="yes"/>
      <point x="218" y="-68"/>
      <point x="192" y="-67"/>
      <point x="167" y="-64" type="curve"/>
      <point x="167" y="-162" type="line"/>
      <point x="200" y="-169"/>
      <point x="230" y="-172"/>
    </contour>
  </outline>
</glyph>
<glyph name="Dcaron.sc" format="1">
  <advance width="610"/>
  <outline>
    <contour>
      <point x="230" y="-8" type="curve" smooth="yes"/>
      <point x="489" y="-8"/>
      <point x="583" y="68"/>
      <point x="583" y="288" type="curve" smooth="yes"/>
      <point x="583" y="508"/>
      <point x="490" y="584"/>
      <point x="233" y="584" type="curve" smooth="yes"/>
      <point x="186" y="584"/>
      <point x="134" y="582"/>
      <point x="48" y="579" type="curve"/>
      <point x="48" y="2" type="line"/>
      <point x="127" y="-5"/>
      <point x="182" y="-8"/>
    </contour>
    <contour>
      <point x="296" y="137" type="curve" smooth="yes"/>
      <point x="277" y="137"/>
      <point x="260" y="137"/>
      <point x="228" y="141" type="curve"/>
      <point x="228" y="439" type="line"/>
      <point x="238" y="440"/>
      <point x="248" y="441"/>
      <point x="269" y="441" type="curve" smooth="yes"/>
      <point x="373" y="441"/>
      <point x="396" y="420"/>
      <point x="396" y="289" type="curve" smooth="yes"/>
      <point x="396" y="153"/>
      <point x="379" y="137"/>
    </contour>
    <contour>
      <point x="300" y="611" type="line"/>
      <point x="459" y="667" type="line"/>
      <point x="459" y="780" type="line"/>
      <point x="300" y="724" type="line"/>
      <point x="140" y="780" type="line"/>
      <point x="140" y="667" type="line"/>
    </contour>
  </outline>
</glyph>
<glyph name="Ddotbelow.sc" format="1">
  <advance width="610"/>
  <outline>
    <contour>
      <point x="230" y="-8" type="curve" smooth="yes"/>
      <point x="489" y="-8"/>
      <point x="583" y="68"/>
      <point x="583" y="288" type="curve" smooth="yes"/>
      <point x="583" y="508"/>
      <point x="490" y="584"/>
      <point x="233" y="584" type="curve" smooth="yes"/>
      <point x="186" y="584"/>
      <point x="134" y="582"/>
      <point x="48" y="579" type="curve"/>
      <point x="48" y="2" type="line"/>
      <point x="127" y="-5"/>
      <point x="182" y="-8"/>
    </contour>
    <contour>
      <point x="296" y="137" type="curve" smooth="yes"/>
      <point x="277" y="137"/>
      <point x="260" y="137"/>
      <point x="228" y="141" type="curve"/>
      <point x="228" y="439" type="line"/>
      <point x="238" y="440"/>
      <point x="248" y="441"/>
      <point x="269" y="441" type="curve" smooth="yes"/>
      <point x="373" y="441"/>
      <point x="396" y="420"/>
      <point x="396" y="289" type="curve" smooth="yes"/>
      <point x="396" y="153"/>
      <point x="379" y="137"/>
    </contour>
    <contour>
      <point x="299" y="-182" type="curve" smooth="yes"/>
      <point x="351" y="-182"/>
      <point x="373" y="-163"/>
      <point x="373" y="-114" type="curve" smooth="yes"/>
      <point x="373" y="-66"/>
      <point x="351" y="-47"/>
      <point x="299" y="-47" type="curve" smooth="yes"/>
      <point x="246" y="-47"/>
      <point x="226" y="-67"/>
      <point x="226" y="-114" type="curve" smooth="yes"/>
      <point x="226" y="-162"/>
      <point x="246" y="-182"/>
    </contour>
  </outline>
</glyph>
<glyph name="Edblgrave.sc" format="1">
  <advance width="520"/>
  <outline>
    <contour>
      <point x="48" y="0" type="line"/>
      <point x="492" y="0" type="line"/>
      <point x="492" y="145" type="line"/>
      <point x="231" y="145" type="line"/>
      <point x="231" y="218" type="line"/>
      <point x="456" y="218" type="line"/>
      <point x="456" y="358" type="line"/>
      <point x="231" y="358" type="line"/>
      <point x="231" y="432" type="line"/>
      <point x="484" y="432" type="line"/>
      <point x="484" y="577" type="line"/>
      <point x="48" y="577" type="line"/>
    </contour>
    <contour>
      <point x="143" y="618" type="line"/>
      <point x="236" y="625" type="line"/>
      <point x="180" y="786" type="line"/>
      <point x="30" y="786" type="line"/>
    </contour>
    <contour>
      <point x="327" y="618" type="line"/>
      <point x="420" y="625" type="line"/>
      <point x="363" y="786" type="line"/>
      <point x="214" y="786" type="line"/>
    </contour>
  </outline>
</glyph>
<glyph name="Edieresis.sc" format="1">
  <advance width="519"/>
  <outline>
    <contour>
      <point x="150" y="619" type="curve" smooth="yes"/>
      <point x="216" y="619"/>
      <point x="246" y="646"/>
      <point x="246" y="711" type="curve" smooth="yes"/>
      <point x="246" y="775"/>
      <point x="216" y="802"/>
      <point x="150" y="802" type="curve" smooth="yes"/>
      <point x="81" y="802"/>
      <point x="54" y="775"/>
      <point x="54" y="711" type="curve" smooth="yes"/>
      <point x="54" y="647"/>
      <point x="81" y="619"/>
    </contour>
    <contour>
      <point x="394" y="619" type="curve" smooth="yes"/>
      <point x="461" y="619"/>
      <point x="490" y="646"/>
      <point x="490" y="711" type="curve" smooth="yes"/>
      <point x="490" y="775"/>
      <point x="461" y="802"/>
      <point x="394" y="802" type="curve" smooth="yes"/>
      <point x="325" y="802"/>
      <point x="299" y="775"/>
      <point x="299" y="711" type="curve" smooth="yes"/>
      <point x="299" y="647"/>
      <point x="325" y="619"/>
    </contour>
    <contour>
      <point x="48" y="0" type="line"/>
      <point x="492" y="0" type="line"/>
      <point x="492" y="145" type="line"/>
      <point x="231" y="145" type="line"/>
      <point x="231" y="218" type="line"/>
      <point x="456" y="218" type="line"/>
      <point x="456" y="358" type="line"/>
      <point x="231" y="358" type="line"/>
      <point x="231" y="432" type="line"/>
      <point x="484" y="432" type="line"/>
      <point x="484" y="577" type="line"/>
      <point x="48" y="577" type="line"/>
    </contour>
  </outline>
</glyph>
<glyph name="Egrave.sc" format="1">
  <advance width="519"/>
  <outline>
    <contour>
      <point x="48" y="0" type="line"/>
      <point x="492" y="0" type="line"/>
      <point x="492" y="145" type="line"/>
      <point x="231" y="145" type="line"/>
      <point x="231" y="218" type="line"/>
      <point x="456" y="218" type="line"/>
      <point x="456" y="358" type="line"/>
      <point x="231" y="358" type="line"/>
      <point x="231" y="432" type="line"/>
      <point x="484" y="432" type="line"/>
      <point x="484" y="577" type="line"/>
      <point x="48" y="577" type="line"/>
    </contour>
    <contour>
      <point x="207" y="618" type="line"/>
      <point x="334" y="625" type="line"/>
      <point x="277" y="786" type="line"/>
      <point x="95" y="786" type="line"/>
    </contour>
  </outline>
</glyph>
<glyph name="Eng.sc" format="1">
  <advance width="639"/>
  <outline>
    <contour>
      <point x="470" y="-172" type="line"/>
      <point x="539" y="-73"/>
      <point x="592" y="53"/>
      <point x="592" y="119" type="curve" smooth="yes"/>
      <point x="592" y="577" type="line"/>
      <point x="430" y="577" type="line"/>
      <point x="430" y="313" type="line"/>
      <point x="420" y="313" type="line"/>
      <point x="387" y="375" type="line"/>
      <point x="196" y="577" type="line"/>
      <point x="49" y="577" type="line"/>
      <point x="49" y="0" type="line"/>
      <point x="211" y="0" type="line"/>
      <point x="211" y="268" type="line"/>
      <point x="221" y="267" type="line"/>
      <point x="253" y="207" type="line"/>
      <point x="403" y="68" type="line"/>
      <point x="396" y="2"/>
      <point x="380" y="-64"/>
      <point x="354" y="-134" type="curve"/>
    </contour>
  </outline>
</glyph>
<glyph name="Etilde.sc" format="1">
  <advance width="519"/>
  <outline>
    <contour>
      <point x="115" y="632" type="line"/>
      <point x="144" y="656"/>
      <point x="164" y="660"/>
      <point x="189" y="660" type="curve" smooth="yes"/>
      <point x="238" y="660"/>
      <point x="287" y="632"/>
      <point x="335" y="632" type="curve" smooth="yes"/>
      <point x="383" y="632"/>
      <point x="435" y="669"/>
      <point x="474" y="750" type="curve"/>
      <point x="453" y="768" type="line"/>
      <point x="425" y="744"/>
      <point x="404" y="739"/>
      <point x="380" y="739" type="curve" smooth="yes"/>
      <point x="330" y="739"/>
      <point x="282" y="767"/>
      <point x="234" y="767" type="curve" smooth="yes"/>
      <point x="187" y="767"/>
      <point x="134" y="730"/>
      <point x="95" y="648" type="curve"/>
    </contour>
    <contour>
      <point x="48" y="0" type="line"/>
      <point x="492" y="0" type="line"/>
      <point x="492" y="145" type="line"/>
      <point x="231" y="145" type="line"/>
      <point x="231" y="218" type="line"/>
      <point x="456" y="218" type="line"/>
      <point x="456" y="358" type="line"/>
      <point x="231" y="358" type="line"/>
      <point x="231" y="432" type="line"/>
      <point x="484" y="432" type="line"/>
      <point x="484" y="577" type="line"/>
      <point x="48" y="577" type="line"/>
    </contour>
  </outline>
</glyph>
<glyph name="Gbreve.sc" format="1">
  <advance width="555"/>
  <outline>
    <contour>
      <point x="306" y="-7" type="curve" smooth="yes"/>
      <point x="362" y="-7"/>
      <point x="425" y="-2"/>
      <point x="520" y="10" type="curve"/>
      <point x="520" y="293" type="line"/>
      <point x="356" y="293" type="line"/>
      <point x="356" y="141" type="line"/>
      <point x="331" y="141" type="line" smooth="yes"/>
      <point x="236" y="141"/>
      <point x="213" y="165"/>
      <point x="213" y="288" type="curve" smooth="yes"/>
      <point x="213" y="405"/>
      <point x="248" y="438"/>
      <point x="367" y="438" type="curve" smooth="yes"/>
      <point x="402" y="438"/>
      <point x="445" y="433"/>
      <point x="508" y="423" type="curve"/>
      <point x="508" y="565" type="line"/>
      <point x="452" y="579"/>
      <point x="399" y="585"/>
      <point x="349" y="585" type="curve" smooth="yes"/>
      <point x="135" y="585"/>
      <point x="25" y="480"/>
      <point x="25" y="289" type="curve" smooth="yes"/>
      <point x="25" y="93"/>
      <point x="119" y="-7"/>
    </contour>
    <contour>
      <point x="306" y="613" type="curve" smooth="yes"/>
      <point x="422" y="613"/>
      <point x="482" y="673"/>
      <point x="482" y="768" type="curve"/>
      <point x="362" y="768" type="line"/>
      <point x="362" y="707"/>
      <point x="351" y="690"/>
      <point x="306" y="690" type="curve" smooth="yes"/>
      <point x="259" y="690"/>
      <point x="249" y="707"/>
      <point x="249" y="768" type="curve"/>
      <point x="130" y="768" type="line"/>
      <point x="130" y="672"/>
      <point x="189" y="613"/>
    </contour>
  </outline>
</glyph>
<glyph name="H.sc" format="1">
  <advance width="643"/>
  <outline>
    <contour>
      <point x="298" y="760" type="move" name="topUC"/>
    </contour>
    <contour>
      <point x="318" y="0" type="move" name="bottom"/>
    </contour>
    <contour>
      <point x="48" y="0" type="line"/>
      <point x="231" y="0" type="line"/>
      <point x="231" y="220" type="line"/>
      <point x="411" y="220" type="line"/>
      <point x="411" y="0" type="line"/>
      <point x="595" y="0" type="line"/>
      <point x="595" y="577" type="line"/>
      <point x="411" y="577" type="line"/>
      <point x="411" y="370" type="line"/>
      <point x="231" y="370" type="line"/>
      <point x="231" y="577" type="line"/>
      <point x="48" y="577" type="line"/>
    </contour>
  </outline>
</glyph>
<glyph name="Hbar.sc" format="1">
  <advance width="666"/>
  <outline>
    <contour>
      <point x="4" y="416" type="line"/>
      <point x="59" y="416" type="line"/>
      <point x="59" y="0" type="line"/>
      <point x="242" y="0" type="line"/>
      <point x="242" y="220" type="line"/>
      <point x="422" y="220" type="line"/>
      <point x="422" y="0" type="line"/>
      <point x="605" y="0" type="line"/>
      <point x="605" y="416" type="line"/>
      <point x="673" y="416" type="line"/>
      <point x="673" y="496" type="line"/>
      <point x="605" y="496" type="line"/>
      <point x="605" y="577" type="line"/>
      <point x="422" y="577" type="line"/>
      <point x="422" y="496" type="line"/>
      <point x="242" y="496" type="line"/>
      <point x="242" y="577" type="line"/>
      <point x="59" y="577" type="line"/>
      <point x="59" y="496" type="line"/>
      <point x="4" y="496" type="line"/>
    </contour>
    <contour>
      <point x="242" y="370" type="line"/>
      <point x="242" y="416" type="line"/>
      <point x="422" y="416" type="line"/>
      <point x="422" y="370" type="line"/>
    </contour>
  </outline>
</glyph>
<glyph name="Hdotbelow.sc" format="1">
  <advance width="643"/>
  <outline>
    <contour>
      <point x="48" y="0" type="line"/>
      <point x="231" y="0" type="line"/>
      <point x="231" y="220" type="line"/>
      <point x="411" y="220" type="line"/>
      <point x="411" y="0" type="line"/>
      <point x="595" y="0" type="line"/>
      <point x="595" y="577" type="line"/>
      <point x="411" y="577" type="line"/>
      <point x="411" y="370" type="line"/>
      <point x="231" y="370" type="line"/>
      <point x="231" y="577" type="line"/>
      <point x="48" y="577" type="line"/>
    </contour>
    <contour>
      <point x="321" y="-182" type="curve" smooth="yes"/>
      <point x="373" y="-182"/>
      <point x="395" y="-163"/>
      <point x="395" y="-114" type="curve" smooth="yes"/>
      <point x="395" y="-66"/>
      <point x="373" y="-47"/>
      <point x="321" y="-47" type="curve" smooth="yes"/>
      <point x="268" y="-47"/>
      <point x="248" y="-67"/>
      <point x="248" y="-114" type="curve" smooth="yes"/>
      <point x="248" y="-162"/>
      <point x="268" y="-182"/>
    </contour>
  </outline>
</glyph>
<glyph name="I.sc" format="1">
  <advance width="279"/>
  <outline>
    <contour>
      <point x="125" y="0" type="move" name="ogonek"/>
    </contour>
    <contour>
      <point x="111" y="760" type="move" name="topUC"/>
    </contour>
    <contour>
      <point x="111" y="0" type="move" name="bottom"/>
    </contour>
    <contour>
      <point x="48" y="0" type="line"/>
      <point x="231" y="0" type="line"/>
      <point x="231" y="577" type="line"/>
      <point x="48" y="577" type="line"/>
    </contour>
  </outline>
</glyph>
<glyph name="Ibreve.sc" format="1">
  <advance width="279"/>
  <outline>
    <contour>
      <point x="48" y="0" type="line"/>
      <point x="231" y="0" type="line"/>
      <point x="231" y="577" type="line"/>
      <point x="48" y="577" type="line"/>
    </contour>
    <contour>
      <point x="140" y="613" type="curve" smooth="yes"/>
      <point x="255" y="613"/>
      <point x="316" y="673"/>
      <point x="316" y="768" type="curve"/>
      <point x="196" y="768" type="line"/>
      <point x="196" y="707"/>
      <point x="185" y="690"/>
      <point x="140" y="690" type="curve" smooth="yes"/>
      <point x="93" y="690"/>
      <point x="83" y="707"/>
      <point x="83" y="768" type="curve"/>
      <point x="-36" y="768" type="line"/>
      <point x="-36" y="672"/>
      <point x="22" y="613"/>
    </contour>
  </outline>
</glyph>
<glyph name="Idotaccent.sc" format="1">
  <advance width="279"/>
  <outline>
    <contour>
      <point x="48" y="0" type="line"/>
      <point x="231" y="0" type="line"/>
      <point x="231" y="577" type="line"/>
      <point x="48" y="577" type="line"/>
    </contour>
    <contour>
      <point x="140" y="622" type="curve" smooth="yes"/>
      <point x="207" y="622"/>
      <point x="236" y="649"/>
      <point x="236" y="714" type="curve" smooth="yes"/>
      <point x="236" y="778"/>
      <point x="207" y="804"/>
      <point x="140" y="804" type="curve" smooth="yes"/>
      <point x="72" y="804"/>
      <point x="45" y="778"/>
      <point x="45" y="714" type="curve" smooth="yes"/>
      <point x="45" y="649"/>
      <point x="72" y="622"/>
    </contour>
  </outline>
</glyph>
<glyph name="Igrave.sc" format="1">
  <advance width="279"/>
  <outline>
    <contour>
      <point x="48" y="0" type="line"/>
      <point x="231" y="0" type="line"/>
      <point x="231" y="577" type="line"/>
      <point x="48" y="577" type="line"/>
    </contour>
    <contour>
      <point x="201" y="625" type="line"/>
      <point x="144" y="786" type="line"/>
      <point x="-38" y="786" type="line"/>
      <point x="75" y="618" type="line"/>
    </contour>
  </outline>
</glyph>
<glyph name="Iinvertedbreve.sc" format="1">
  <advance width="279"/>
  <outline>
    <contour>
      <point x="48" y="0" type="line"/>
      <point x="231" y="0" type="line"/>
      <point x="231" y="577" type="line"/>
      <point x="48" y="577" type="line"/>
    </contour>
    <contour>
      <point x="317" y="621" type="line"/>
      <point x="317" y="717"/>
      <point x="256" y="776"/>
      <point x="141" y="776" type="curve" smooth="yes"/>
      <point x="23" y="776"/>
      <point x="-35" y="717"/>
      <point x="-35" y="621" type="curve"/>
      <point x="84" y="621" type="line"/>
      <point x="84" y="681"/>
      <point x="94" y="698"/>
      <point x="141" y="698" type="curve" smooth="yes"/>
      <point x="186" y="698"/>
      <point x="197" y="681"/>
      <point x="197" y="621" type="curve"/>
    </contour>
  </outline>
</glyph>
<glyph name="Kcommaaccent.sc" format="1">
  <advance width="596"/>
  <outline>
    <contour>
      <point x="48" y="0" type="line"/>
      <point x="231" y="0" type="line"/>
      <point x="231" y="220" type="line"/>
      <point x="287" y="220" type="line"/>
      <point x="401" y="0" type="line"/>
      <point x="604" y="0" type="line"/>
      <point x="463" y="268" type="line"/>
      <point x="395" y="291" type="line"/>
      <point x="395" y="297" type="line"/>
      <point x="462" y="320" type="line"/>
      <point x="585" y="577" type="line"/>
      <point x="385" y="577" type="line"/>
      <point x="294" y="370" type="line"/>
      <point x="231" y="370" type="line"/>
      <point x="231" y="577" type="line"/>
      <point x="48" y="577" type="line"/>
    </contour>
    <contour>
      <point x="181" y="-172" type="line"/>
      <point x="313" y="-172" type="line"/>
      <point x="400" y="-55" type="line"/>
      <point x="217" y="-55" type="line"/>
    </contour>
  </outline>
</glyph>
<glyph name="L.sc" format="1">
  <advance width="450"/>
  <outline>
    <contour>
      <point x="124" y="760" type="move" name="topUC"/>
    </contour>
    <contour>
      <point x="294" y="370" type="move" name="periodcentered"/>
    </contour>
    <contour>
      <point x="342" y="740" type="move" name="caronalt"/>
    </contour>
    <contour>
      <point x="238" y="0" type="move" name="bottom"/>
    </contour>
    <contour>
      <point x="48" y="0" type="line"/>
      <point x="437" y="0" type="line"/>
      <point x="437" y="150" type="line"/>
      <point x="231" y="150" type="line"/>
      <point x="231" y="577" type="line"/>
      <point x="48" y="577" type="line"/>
    </contour>
  </outline>
</glyph>
<glyph name="Lcaron.sc" format="1">
  <advance width="486"/>
  <outline>
    <contour>
      <point x="49" y="0" type="line"/>
      <point x="438" y="0" type="line"/>
      <point x="438" y="150" type="line"/>
      <point x="232" y="150" type="line"/>
      <point x="232" y="577" type="line"/>
      <point x="49" y="577" type="line"/>
    </contour>
    <contour>
      <point x="368" y="465" type="line"/>
      <point x="463" y="465" type="line"/>
      <point x="507" y="642" type="line"/>
      <point x="368" y="642" type="line"/>
    </contour>
  </outline>
</glyph>
<glyph name="Ncaron.sc" format="1">
  <advance width="639"/>
  <outline>
    <contour>
      <point x="48" y="0" type="line"/>
      <point x="210" y="0" type="line"/>
      <point x="210" y="288" type="line"/>
      <point x="220" y="287" type="line"/>
      <point x="262" y="227" type="line"/>
      <point x="445" y="0" type="line"/>
      <point x="591" y="0" type="line"/>
      <point x="591" y="577" type="line"/>
      <point x="429" y="577" type="line"/>
      <point x="429" y="293" type="line"/>
      <point x="419" y="293" type="line"/>
      <point x="376" y="355" type="line"/>
      <point x="195" y="577" type="line"/>
      <point x="48" y="577" type="line"/>
    </contour>
    <contour>
      <point x="318" y="611" type="line"/>
      <point x="477" y="667" type="line"/>
      <point x="477" y="780" type="line"/>
      <point x="317" y="724" type="line"/>
      <point x="158" y="780" type="line"/>
      <point x="158" y="667" type="line"/>
    </contour>
  </outline>
</glyph>
<glyph name="Ndotaccent.sc" format="1">
  <advance width="639"/>
  <outline>
    <contour>
      <point x="48" y="0" type="line"/>
      <point x="210" y="0" type="line"/>
      <point x="210" y="288" type="line"/>
      <point x="220" y="287" type="line"/>
      <point x="262" y="227" type="line"/>
      <point x="445" y="0" type="line"/>
      <point x="591" y="0" type="line"/>
      <point x="591" y="577" type="line"/>
      <point x="429" y="577" type="line"/>
      <point x="429" y="293" type="line"/>
      <point x="419" y="293" type="line"/>
      <point x="376" y="355" type="line"/>
      <point x="195" y="577" type="line"/>
      <point x="48" y="577" type="line"/>
    </contour>
    <contour>
      <point x="309" y="622" type="curve" smooth="yes"/>
      <point x="376" y="622"/>
      <point x="405" y="649"/>
      <point x="405" y="714" type="curve" smooth="yes"/>
      <point x="405" y="778"/>
      <point x="376" y="804"/>
      <point x="309" y="804" type="curve" smooth="yes"/>
      <point x="240" y="804"/>
      <point x="213" y="778"/>
      <point x="213" y="714" type="curve" smooth="yes"/>
      <point x="213" y="649"/>
      <point x="240" y="622"/>
    </contour>
  </outline>
</glyph>
<glyph name="Oinvertedbreve.sc" format="1">
  <advance width="637"/>
  <outline>
    <contour>
      <point x="318" y="-8" type="curve" smooth="yes"/>
      <point x="517" y="-8"/>
      <point x="612" y="86"/>
      <point x="612" y="288" type="curve" smooth="yes"/>
      <point x="612" y="490"/>
      <point x="517" y="585"/>
      <point x="318" y="585" type="curve" smooth="yes"/>
      <point x="122" y="585"/>
      <point x="25" y="487"/>
      <point x="25" y="288" type="curve" smooth="yes"/>
      <point x="25" y="89"/>
      <point x="122" y="-8"/>
    </contour>
    <contour>
      <point x="318" y="140" type="curve" smooth="yes"/>
      <point x="238" y="140"/>
      <point x="213" y="173"/>
      <point x="213" y="288" type="curve" smooth="yes"/>
      <point x="213" y="406"/>
      <point x="238" y="437"/>
      <point x="318" y="437" type="curve" smooth="yes"/>
      <point x="401" y="437"/>
      <point x="424" y="409"/>
      <point x="424" y="288" type="curve" smooth="yes"/>
      <point x="424" y="170"/>
      <point x="399" y="140"/>
    </contour>
    <contour>
      <point x="495" y="621" type="line"/>
      <point x="495" y="717"/>
      <point x="435" y="776"/>
      <point x="319" y="776" type="curve" smooth="yes"/>
      <point x="202" y="776"/>
      <point x="143" y="717"/>
      <point x="143" y="621" type="curve"/>
      <point x="262" y="621" type="line"/>
      <point x="262" y="681"/>
      <point x="273" y="698"/>
      <point x="319" y="698" type="curve" smooth="yes"/>
      <point x="364" y="698"/>
      <point x="376" y="681"/>
      <point x="376" y="621" type="curve"/>
    </contour>
  </outline>
</glyph>
<glyph name="Oslashacute.sc" format="1">
  <advance width="640"/>
  <outline>
    <contour>
      <point x="1" y="0" type="line"/>
      <point x="131" y="0" type="line"/>
      <point x="153" y="26" type="line"/>
      <point x="197" y="3"/>
      <point x="252" y="-8"/>
      <point x="319" y="-8" type="curve" smooth="yes"/>
      <point x="518" y="-8"/>
      <point x="613" y="86"/>
      <point x="613" y="288" type="curve" smooth="yes"/>
      <point x="613" y="373"/>
      <point x="596" y="440"/>
      <point x="561" y="488" type="curve"/>
      <point x="640" y="577" type="line"/>
      <point x="510" y="577" type="line"/>
      <point x="487" y="551" type="line"/>
      <point x="443" y="573"/>
      <point x="387" y="585"/>
      <point x="319" y="585" type="curve" smooth="yes"/>
      <point x="123" y="585"/>
      <point x="26" y="487"/>
      <point x="26" y="288" type="curve" smooth="yes"/>
      <point x="26" y="203"/>
      <point x="43" y="136"/>
      <point x="79" y="88" type="curve"/>
    </contour>
    <contour>
      <point x="319" y="140" type="curve" smooth="yes"/>
      <point x="295" y="140"/>
      <point x="277" y="142"/>
      <point x="262" y="149" type="curve"/>
      <point x="424" y="332" type="line"/>
      <point x="425" y="319"/>
      <point x="425" y="304"/>
      <point x="425" y="288" type="curve" smooth="yes"/>
      <point x="425" y="170"/>
      <point x="400" y="140"/>
    </contour>
    <contour>
      <point x="376" y="618" type="line"/>
      <point x="488" y="786" type="line"/>
      <point x="306" y="786" type="line"/>
      <point x="249" y="627" type="line"/>
    </contour>
    <contour>
      <point x="214" y="288" type="curve" smooth="yes"/>
      <point x="214" y="406"/>
      <point x="239" y="437"/>
      <point x="319" y="437" type="curve" smooth="yes"/>
      <point x="344" y="437"/>
      <point x="363" y="434"/>
      <point x="378" y="427" type="curve"/>
      <point x="215" y="243" type="line"/>
      <point x="214" y="256"/>
      <point x="214" y="271"/>
    </contour>
  </outline>
</glyph>
<glyph name="P.sc" format="1">
  <advance width="570"/>
  <outline>
    <contour>
      <point x="49" y="0" type="line"/>
      <point x="232" y="0" type="line"/>
      <point x="232" y="164" type="line"/>
      <point x="248" y="164" type="line" smooth="yes"/>
      <point x="463" y="164"/>
      <point x="554" y="226"/>
      <point x="554" y="372" type="curve" smooth="yes"/>
      <point x="554" y="523"/>
      <point x="461" y="585"/>
      <point x="235" y="585" type="curve" smooth="yes"/>
      <point x="173" y="585"/>
      <point x="108" y="581"/>
      <point x="49" y="573" type="curve"/>
    </contour>
    <contour>
      <point x="272" y="303" type="curve" smooth="yes"/>
      <point x="262" y="303"/>
      <point x="240" y="304"/>
      <point x="232" y="304" type="curve"/>
      <point x="232" y="442" type="line"/>
      <point x="235" y="442"/>
      <point x="253" y="443"/>
      <point x="267" y="443" type="curve" smooth="yes"/>
      <point x="353" y="443"/>
      <point x="376" y="428"/>
      <point x="376" y="371" type="curve" smooth="yes"/>
      <point x="376" y="314"/>
      <point x="352" y="303"/>
    </contour>
  </outline>
</glyph>
<glyph name="Rdblgrave.sc" format="1">
  <advance width="582"/>
  <outline>
    <contour>
      <point x="49" y="0" type="line"/>
      <point x="232" y="0" type="line"/>
      <point x="232" y="182" type="line"/>
      <point x="243" y="183"/>
      <point x="255" y="183"/>
      <point x="266" y="183" type="curve" smooth="yes"/>
      <point x="290" y="183" type="line"/>
      <point x="388" y="0" type="line"/>
      <point x="579" y="0" type="line"/>
      <point x="453" y="214" type="line"/>
      <point x="521" y="245"/>
      <point x="554" y="299"/>
      <point x="554" y="379" type="curve" smooth="yes"/>
      <point x="554" y="525"/>
      <point x="460" y="585"/>
      <point x="235" y="585" type="curve" smooth="yes"/>
      <point x="167" y="585"/>
      <point x="103" y="581"/>
      <point x="49" y="573" type="curve"/>
    </contour>
    <contour>
      <point x="269" y="318" type="curve"/>
      <point x="257" y="318"/>
      <point x="244" y="318"/>
      <point x="232" y="318" type="curve"/>
      <point x="232" y="441" type="line"/>
      <point x="238" y="441"/>
      <point x="257" y="442"/>
      <point x="264" y="442" type="curve" smooth="yes"/>
      <point x="353" y="442"/>
      <point x="375" y="433"/>
      <point x="375" y="379" type="curve" smooth="yes"/>
      <point x="375" y="327"/>
      <point x="354" y="318"/>
    </contour>
    <contour>
      <point x="168" y="618" type="line"/>
      <point x="261" y="625" type="line"/>
      <point x="204" y="786" type="line"/>
      <point x="55" y="786" type="line"/>
    </contour>
    <contour>
      <point x="352" y="618" type="line"/>
      <point x="445" y="625" type="line"/>
      <point x="388" y="786" type="line"/>
      <point x="238" y="786" type="line"/>
    </contour>
  </outline>
</glyph>
<glyph name="T.sc" format="1">
  <advance width="519"/>
  <outline>
    <contour>
      <point x="238" y="760" type="move" name="topUC"/>
    </contour>
    <contour>
      <point x="239" y="0" type="move" name="bottom"/>
    </contour>
    <contour>
      <point x="168" y="0" type="line"/>
      <point x="351" y="0" type="line"/>
      <point x="351" y="424" type="line"/>
      <point x="500" y="424" type="line"/>
      <point x="500" y="577" type="line"/>
      <point x="19" y="577" type="line"/>
      <point x="19" y="424" type="line"/>
      <point x="168" y="424" type="line"/>
    </contour>
  </outline>
</glyph>
<glyph name="Tbar.sc" format="1">
  <advance width="523"/>
  <outline>
    <contour>
      <point x="66" y="234" type="line"/>
      <point x="170" y="234" type="line"/>
      <point x="170" y="0" type="line"/>
      <point x="353" y="0" type="line"/>
      <point x="353" y="234" type="line"/>
      <point x="457" y="234" type="line"/>
      <point x="457" y="333" type="line"/>
      <point x="353" y="333" type="line"/>
      <point x="353" y="424" type="line"/>
      <point x="502" y="424" type="line"/>
      <point x="502" y="577" type="line"/>
      <point x="21" y="577" type="line"/>
      <point x="21" y="424" type="line"/>
      <point x="170" y="424" type="line"/>
      <point x="170" y="333" type="line"/>
      <point x="66" y="333" type="line"/>
    </contour>
  </outline>
</glyph>
<glyph name="Thorn.sc" format="1">
  <advance width="570"/>
  <outline>
    <contour>
      <point x="48" y="0" type="line"/>
      <point x="231" y="0" type="line"/>
      <point x="231" y="76" type="line"/>
      <point x="248" y="76" type="line" smooth="yes"/>
      <point x="463" y="76"/>
      <point x="554" y="137"/>
      <point x="554" y="283" type="curve" smooth="yes"/>
      <point x="554" y="433"/>
      <point x="460" y="494"/>
      <point x="234" y="494" type="curve" smooth="yes"/>
      <point x="231" y="494" type="line"/>
      <point x="231" y="577" type="line"/>
      <point x="48" y="577" type="line"/>
    </contour>
    <contour>
      <point x="267" y="220" type="curve" smooth="yes"/>
      <point x="255" y="220"/>
      <point x="243" y="220"/>
      <point x="231" y="219" type="curve"/>
      <point x="231" y="349" type="line"/>
      <point x="241" y="348"/>
      <point x="251" y="347"/>
      <point x="261" y="347" type="curve" smooth="yes"/>
      <point x="347" y="347"/>
      <point x="366" y="336"/>
      <point x="366" y="283" type="curve" smooth="yes"/>
      <point x="366" y="230"/>
      <point x="346" y="220"/>
    </contour>
  </outline>
</glyph>
<glyph name="Ubreve.sc" format="1">
  <advance width="627"/>
  <outline>
    <contour>
      <point x="314" y="-8" type="curve" smooth="yes"/>
      <point x="515" y="-8"/>
      <point x="583" y="69"/>
      <point x="583" y="220" type="curve" smooth="yes"/>
      <point x="583" y="576" type="line"/>
      <point x="400" y="576" type="line"/>
      <point x="400" y="231" type="line" smooth="yes"/>
      <point x="400" y="164"/>
      <point x="380" y="144"/>
      <point x="314" y="144" type="curve" smooth="yes"/>
      <point x="250" y="144"/>
      <point x="227" y="166"/>
      <point x="227" y="231" type="curve" smooth="yes"/>
      <point x="227" y="576" type="line"/>
      <point x="44" y="576" type="line"/>
      <point x="44" y="220" type="line" smooth="yes"/>
      <point x="44" y="71"/>
      <point x="113" y="-8"/>
    </contour>
    <contour>
      <point x="307" y="613" type="curve" smooth="yes"/>
      <point x="423" y="613"/>
      <point x="483" y="673"/>
      <point x="483" y="768" type="curve"/>
      <point x="363" y="768" type="line"/>
      <point x="363" y="707"/>
      <point x="352" y="690"/>
      <point x="307" y="690" type="curve" smooth="yes"/>
      <point x="260" y="690"/>
      <point x="250" y="707"/>
      <point x="250" y="768" type="curve"/>
      <point x="131" y="768" type="line"/>
      <point x="131" y="672"/>
      <point x="190" y="613"/>
    </contour>
  </outline>
</glyph>
<glyph name="Udotbelow.sc" format="1">
  <advance width="627"/>
  <outline>
    <contour>
      <point x="314" y="-8" type="curve" smooth="yes"/>
      <point x="515" y="-8"/>
      <point x="583" y="69"/>
      <point x="583" y="220" type="curve" smooth="yes"/>
      <point x="583" y="576" type="line"/>
      <point x="400" y="576" type="line"/>
      <point x="400" y="231" type="line" smooth="yes"/>
      <point x="400" y="164"/>
      <point x="380" y="144"/>
      <point x="314" y="144" type="curve" smooth="yes"/>
      <point x="250" y="144"/>
      <point x="227" y="166"/>
      <point x="227" y="231" type="curve" smooth="yes"/>
      <point x="227" y="576" type="line"/>
      <point x="44" y="576" type="line"/>
      <point x="44" y="220" type="line" smooth="yes"/>
      <point x="44" y="71"/>
      <point x="113" y="-8"/>
    </contour>
    <contour>
      <point x="314" y="-182" type="curve" smooth="yes"/>
      <point x="366" y="-182"/>
      <point x="388" y="-163"/>
      <point x="388" y="-114" type="curve" smooth="yes"/>
      <point x="388" y="-66"/>
      <point x="366" y="-47"/>
      <point x="314" y="-47" type="curve" smooth="yes"/>
      <point x="261" y="-47"/>
      <point x="240" y="-67"/>
      <point x="240" y="-114" type="curve" smooth="yes"/>
      <point x="240" y="-162"/>
      <point x="261" y="-182"/>
    </contour>
  </outline>
</glyph>
<glyph name="Uhungarumlaut.sc" format="1">
  <advance width="627"/>
  <outline>
    <contour>
      <point x="314" y="-8" type="curve" smooth="yes"/>
      <point x="515" y="-8"/>
      <point x="583" y="69"/>
      <point x="583" y="220" type="curve" smooth="yes"/>
      <point x="583" y="576" type="line"/>
      <point x="400" y="576" type="line"/>
      <point x="400" y="231" type="line" smooth="yes"/>
      <point x="400" y="164"/>
      <point x="380" y="144"/>
      <point x="314" y="144" type="curve" smooth="yes"/>
      <point x="250" y="144"/>
      <point x="227" y="166"/>
      <point x="227" y="231" type="curve" smooth="yes"/>
      <point x="227" y="576" type="line"/>
      <point x="44" y="576" type="line"/>
      <point x="44" y="220" type="line" smooth="yes"/>
      <point x="44" y="71"/>
      <point x="113" y="-8"/>
    </contour>
    <contour>
      <point x="253" y="618" type="line"/>
      <point x="365" y="786" type="line"/>
      <point x="216" y="786" type="line"/>
      <point x="159" y="625" type="line"/>
    </contour>
    <contour>
      <point x="436" y="618" type="line"/>
      <point x="549" y="786" type="line"/>
      <point x="399" y="786" type="line"/>
      <point x="342" y="625" type="line"/>
    </contour>
  </outline>
</glyph>
<glyph name="Wcircumflex.sc" format="1">
  <advance width="882"/>
  <outline>
    <contour>
      <point x="149" y="0" type="line"/>
      <point x="365" y="0" type="line"/>
      <point x="417" y="210" type="line"/>
      <point x="436" y="323" type="line"/>
      <point x="447" y="323" type="line"/>
      <point x="465" y="210" type="line"/>
      <point x="518" y="0" type="line"/>
      <point x="733" y="0" type="line"/>
      <point x="880" y="577" type="line"/>
      <point x="675" y="577" type="line"/>
      <point x="631" y="274" type="line"/>
      <point x="623" y="216" type="line"/>
      <point x="608" y="216" type="line"/>
      <point x="598" y="274" type="line"/>
      <point x="528" y="577" type="line"/>
      <point x="355" y="577" type="line"/>
      <point x="283" y="274" type="line"/>
      <point x="274" y="216" type="line"/>
      <point x="259" y="216" type="line"/>
      <point x="251" y="274" type="line"/>
      <point x="206" y="577" type="line"/>
      <point x="2" y="577" type="line"/>
    </contour>
    <contour>
      <point x="278" y="608" type="line"/>
      <point x="438" y="664" type="line"/>
      <point x="597" y="608" type="line"/>
      <point x="597" y="721" type="line"/>
      <point x="438" y="777" type="line"/>
      <point x="278" y="721" type="line"/>
    </contour>
  </outline>
</glyph>
<glyph name="Wdieresis.sc" format="1">
  <advance width="882"/>
  <outline>
    <contour>
      <point x="149" y="0" type="line"/>
      <point x="365" y="0" type="line"/>
      <point x="417" y="210" type="line"/>
      <point x="436" y="323" type="line"/>
      <point x="447" y="323" type="line"/>
      <point x="465" y="210" type="line"/>
      <point x="518" y="0" type="line"/>
      <point x="733" y="0" type="line"/>
      <point x="880" y="577" type="line"/>
      <point x="675" y="577" type="line"/>
      <point x="631" y="274" type="line"/>
      <point x="623" y="216" type="line"/>
      <point x="608" y="216" type="line"/>
      <point x="598" y="274" type="line"/>
      <point x="528" y="577" type="line"/>
      <point x="355" y="577" type="line"/>
      <point x="283" y="274" type="line"/>
      <point x="274" y="216" type="line"/>
      <point x="259" y="216" type="line"/>
      <point x="251" y="274" type="line"/>
      <point x="206" y="577" type="line"/>
      <point x="2" y="577" type="line"/>
    </contour>
    <contour>
      <point x="315" y="619" type="curve" smooth="yes"/>
      <point x="382" y="619"/>
      <point x="411" y="646"/>
      <point x="411" y="711" type="curve" smooth="yes"/>
      <point x="411" y="775"/>
      <point x="382" y="802"/>
      <point x="315" y="802" type="curve" smooth="yes"/>
      <point x="246" y="802"/>
      <point x="220" y="775"/>
      <point x="220" y="711" type="curve" smooth="yes"/>
      <point x="220" y="647"/>
      <point x="246" y="619"/>
    </contour>
    <contour>
      <point x="559" y="619" type="curve" smooth="yes"/>
      <point x="626" y="619"/>
      <point x="655" y="646"/>
      <point x="655" y="711" type="curve" smooth="yes"/>
      <point x="655" y="775"/>
      <point x="626" y="802"/>
      <point x="559" y="802" type="curve" smooth="yes"/>
      <point x="491" y="802"/>
      <point x="464" y="775"/>
      <point x="464" y="711" type="curve" smooth="yes"/>
      <point x="464" y="647"/>
      <point x="491" y="619"/>
    </contour>
  </outline>
</glyph>
<glyph name="Ytilde.sc" format="1">
  <advance width="628"/>
  <outline>
    <contour>
      <point x="222" y="0" type="line"/>
      <point x="406" y="0" type="line"/>
      <point x="406" y="197" type="line"/>
      <point x="637" y="577" type="line"/>
      <point x="435" y="577" type="line"/>
      <point x="328" y="411" type="line"/>
      <point x="322" y="380" type="line"/>
      <point x="307" y="380" type="line"/>
      <point x="302" y="411" type="line"/>
      <point x="196" y="577" type="line"/>
      <point x="-11" y="577" type="line"/>
      <point x="222" y="198" type="line"/>
    </contour>
    <contour>
      <point x="157" y="632" type="line"/>
      <point x="186" y="656"/>
      <point x="207" y="660"/>
      <point x="232" y="660" type="curve" smooth="yes"/>
      <point x="280" y="660"/>
      <point x="329" y="632"/>
      <point x="378" y="632" type="curve" smooth="yes"/>
      <point x="425" y="632"/>
      <point x="477" y="669"/>
      <point x="516" y="750" type="curve"/>
      <point x="496" y="768" type="line"/>
      <point x="467" y="744"/>
      <point x="446" y="739"/>
      <point x="422" y="739" type="curve" smooth="yes"/>
      <point x="373" y="739"/>
      <point x="324" y="767"/>
      <point x="276" y="767" type="curve" smooth="yes"/>
      <point x="229" y="767"/>
      <point x="177" y="730"/>
      <point x="138" y="648" type="curve"/>
    </contour>
  </outline>
</glyph>
<glyph name="Z.sc" format="1">
  <advance width="526"/>
  <outline>
    <contour>
      <point x="223" y="760" type="move" name="topUC"/>
    </contour>
    <contour>
      <point x="216" y="0" type="move" name="bottom"/>
    </contour>
    <contour>
      <point x="31" y="0" type="line"/>
      <point x="500" y="0" type="line"/>
      <point x="500" y="151" type="line"/>
      <point x="243" y="151" type="line"/>
      <point x="243" y="160" type="line"/>
      <point x="483" y="409" type="line"/>
      <point x="483" y="577" type="line"/>
      <point x="37" y="577" type="line"/>
      <point x="37" y="426" type="line"/>
      <point x="271" y="426" type="line"/>
      <point x="271" y="417" type="line"/>
      <point x="31" y="167" type="line"/>
    </contour>
  </outline>
</glyph>
<glyph name="Zcaron.sc" format="1">
  <advance width="532"/>
  <outline>
    <contour>
      <point x="27" y="0" type="line"/>
      <point x="506" y="0" type="line"/>
      <point x="506" y="151" type="line"/>
      <point x="229" y="151" type="line"/>
      <point x="229" y="160" type="line"/>
      <point x="489" y="409" type="line"/>
      <point x="489" y="577" type="line"/>
      <point x="43" y="577" type="line"/>
      <point x="43" y="426" type="line"/>
      <point x="287" y="426" type="line"/>
      <point x="287" y="417" type="line"/>
      <point x="27" y="167" type="line"/>
    </contour>
    <contour>
      <point x="119" y="667" type="line"/>
      <point x="279" y="611" type="line"/>
      <point x="437" y="667" type="line"/>
      <point x="437" y="780" type="line"/>
      <point x="278" y="724" type="line"/>
      <point x="119" y="780" type="line"/>
    </contour>
  </outline>
</glyph>
<glyph name="acute.cap" format="1">
  <advance width="279"/>
  <outline>
    <contour>
      <point x="94" y="805" type="move" name="_topUC"/>
    </contour>
    <contour>
      <point x="154" y="790" type="line"/>
      <point x="277" y="988" type="line"/>
      <point x="83" y="988" type="line"/>
      <point x="19" y="800" type="line"/>
    </contour>
  </outline>
</glyph>
<glyph name="ampersand.sc" format="1">
  <advance width="622"/>
  <outline>
    <contour>
      <point x="276" y="-6" type="curve" smooth="yes"/>
      <point x="362" y="-6"/>
      <point x="433" y="20"/>
      <point x="482" y="66" type="curve"/>
      <point x="561" y="13" type="line"/>
      <point x="565" y="13" type="line"/>
      <point x="629" y="165" type="line"/>
      <point x="629" y="168" type="line"/>
      <point x="556" y="210" type="line"/>
      <point x="559" y="228"/>
      <point x="561" y="248"/>
      <point x="561" y="268" type="curve" smooth="yes"/>
      <point x="561" y="336" type="line"/>
      <point x="409" y="336" type="line"/>
      <point x="409" y="314" type="line"/>
      <point x="409" y="296" type="line"/>
      <point x="384" y="310" type="line" smooth="yes"/>
      <point x="293" y="361"/>
      <point x="248" y="397"/>
      <point x="248" y="415" type="curve" smooth="yes"/>
      <point x="248" y="437"/>
      <point x="269" y="445"/>
      <point x="318" y="445" type="curve" smooth="yes"/>
      <point x="355" y="445"/>
      <point x="409" y="436"/>
      <point x="448" y="424" type="curve"/>
      <point x="452" y="424" type="line"/>
      <point x="468" y="560" type="line"/>
      <point x="468" y="565" type="line"/>
      <point x="409" y="579"/>
      <point x="357" y="585"/>
      <point x="302" y="585" type="curve" smooth="yes"/>
      <point x="158" y="585"/>
      <point x="75" y="533"/>
      <point x="75" y="443" type="curve" smooth="yes"/>
      <point x="75" y="401"/>
      <point x="98" y="358"/>
      <point x="156" y="304" type="curve"/>
      <point x="77" y="292"/>
      <point x="27" y="234"/>
      <point x="27" y="160" type="curve" smooth="yes"/>
      <point x="27" y="58"/>
      <point x="125" y="-6"/>
    </contour>
    <contour>
      <point x="289" y="128" type="curve" smooth="yes"/>
      <point x="238" y="128"/>
      <point x="203" y="147"/>
      <point x="203" y="172" type="curve" smooth="yes"/>
      <point x="203" y="199"/>
      <point x="225" y="219"/>
      <point x="257" y="222" type="curve"/>
      <point x="278" y="205"/>
      <point x="292" y="197"/>
      <point x="326" y="173" type="curve" smooth="yes"/>
      <point x="363" y="147" type="line"/>
      <point x="344" y="134"/>
      <point x="320" y="128"/>
    </contour>
  </outline>
</glyph>
<glyph name="braceright.sc" format="1">
  <advance width="309"/>
  <outline>
    <contour>
      <point x="286" y="341" type="line"/>
      <point x="244" y="341"/>
      <point x="232" y="361"/>
      <point x="232" y="404" type="curve" smooth="yes"/>
      <point x="232" y="574" type="line" smooth="yes"/>
      <point x="232" y="647"/>
      <point x="201" y="677"/>
      <point x="129" y="677" type="curve" smooth="yes"/>
      <point x="107" y="677"/>
      <point x="37" y="675"/>
      <point x="26" y="673" type="curve"/>
      <point x="26" y="567" type="line"/>
      <point x="53" y="567" type="line" smooth="yes"/>
      <point x="81" y="567"/>
      <point x="93" y="557"/>
      <point x="93" y="537" type="curve" smooth="yes"/>
      <point x="93" y="367" type="line" smooth="yes"/>
      <point x="93" y="318"/>
      <point x="124" y="281"/>
      <point x="169" y="275" type="curve"/>
      <point x="124" y="271"/>
      <point x="93" y="235"/>
      <point x="93" y="186" type="curve" smooth="yes"/>
      <point x="93" y="13" type="line" smooth="yes"/>
      <point x="93" y="-6"/>
      <point x="81" y="-17"/>
      <point x="53" y="-17" type="curve" smooth="yes"/>
      <point x="26" y="-17" type="line"/>
      <point x="26" y="-123" type="line"/>
      <point x="37" y="-125"/>
      <point x="107" y="-127"/>
      <point x="129" y="-127" type="curve" smooth="yes"/>
      <point x="201" y="-127"/>
      <point x="232" y="-97"/>
      <point x="232" y="-23" type="curve" smooth="yes"/>
      <point x="232" y="149" type="line" smooth="yes"/>
      <point x="232" y="192"/>
      <point x="244" y="211"/>
      <point x="286" y="211" type="curve"/>
    </contour>
  </outline>
</glyph>
<glyph name="breve.cap" format="1">
  <advance width="413"/>
  <outline>
    <contour>
      <point x="207" y="805" type="move" name="_topUC"/>
    </contour>
    <contour>
      <point x="207" y="790" type="curve" smooth="yes"/>
      <point x="329" y="790"/>
      <point x="396" y="861"/>
      <point x="396" y="976" type="curve"/>
      <point x="268" y="976" type="line"/>
      <point x="268" y="900"/>
      <point x="255" y="876"/>
      <point x="207" y="876" type="curve" smooth="yes"/>
      <point x="157" y="876"/>
      <point x="145" y="900"/>
      <point x="145" y="976" type="curve"/>
      <point x="18" y="976" type="line"/>
      <point x="18" y="860"/>
      <point x="83" y="790"/>
    </contour>
  </outline>
</glyph>
<glyph name="caron.alt" format="1">
  <advance width="215"/>
  <outline>
    <contour>
      <point x="42" y="674" type="move" name="_caronalt"/>
    </contour>
    <contour>
      <point x="42" y="580" type="line"/>
      <point x="143" y="580" type="line"/>
      <point x="190" y="808" type="line"/>
      <point x="42" y="808" type="line"/>
    </contour>
  </outline>
</glyph>
<glyph name="caron.cap" format="1">
  <advance width="399"/>
  <outline>
    <contour>
      <point x="190" y="805" type="move" name="_topUC"/>
    </contour>
    <contour>
      <point x="29" y="857" type="line"/>
      <point x="201" y="786" type="line"/>
      <point x="371" y="857" type="line"/>
      <point x="371" y="981" type="line"/>
      <point x="200" y="910" type="line"/>
      <point x="29" y="981" type="line"/>
    </contour>
  </outline>
</glyph>
<glyph name="colon.tab" format="1">
  <advance width="300"/>
  <outline>
    <contour>
      <point x="150" y="-9" type="curve" smooth="yes"/>
      <point x="223" y="-9"/>
      <point x="252" y="21"/>
      <point x="252" y="91" type="curve" smooth="yes"/>
      <point x="252" y="161"/>
      <point x="222" y="190"/>
      <point x="150" y="190" type="curve" smooth="yes"/>
      <point x="78" y="190"/>
      <point x="49" y="161"/>
      <point x="49" y="91" type="curve" smooth="yes"/>
      <point x="49" y="20"/>
      <point x="79" y="-9"/>
    </contour>
    <contour>
      <point x="150" y="351" type="curve" smooth="yes"/>
      <point x="223" y="351"/>
      <point x="252" y="381"/>
      <point x="252" y="451" type="curve" smooth="yes"/>
      <point x="252" y="521"/>
      <point x="222" y="550"/>
      <point x="150" y="550" type="curve" smooth="yes"/>
      <point x="78" y="550"/>
      <point x="49" y="521"/>
      <point x="49" y="451" type="curve" smooth="yes"/>
      <point x="49" y="380"/>
      <point x="79" y="351"/>
    </contour>
  </outline>
</glyph>
<glyph name="divide.tab" format="1">
  <advance width="600"/>
  <outline>
    <contour>
      <point x="302" y="91" type="curve" smooth="yes"/>
      <point x="353" y="91"/>
      <point x="390" y="119"/>
      <point x="390" y="177" type="curve" smooth="yes"/>
      <point x="390" y="233"/>
      <point x="353" y="259"/>
      <point x="302" y="259" type="curve" smooth="yes"/>
      <point x="250" y="259"/>
      <point x="213" y="233"/>
      <point x="213" y="177" type="curve" smooth="yes"/>
      <point x="213" y="119"/>
      <point x="250" y="91"/>
    </contour>
    <contour>
      <point x="38" y="303" type="line"/>
      <point x="561" y="303" type="line"/>
      <point x="561" y="437" type="line"/>
      <point x="38" y="437" type="line"/>
    </contour>
    <contour>
      <point x="302" y="481" type="curve" smooth="yes"/>
      <point x="353" y="481"/>
      <point x="390" y="507"/>
      <point x="390" y="563" type="curve" smooth="yes"/>
      <point x="390" y="621"/>
      <point x="353" y="649"/>
      <point x="302" y="649" type="curve" smooth="yes"/>
      <point x="250" y="649"/>
      <point x="213" y="621"/>
      <point x="213" y="563" type="curve" smooth="yes"/>
      <point x="213" y="507"/>
      <point x="250" y="481"/>
    </contour>
  </outline>
</glyph>
<glyph name="dotbelow" format="1">
  <advance width="229"/>
  <outline>
    <contour>
      <point x="114" y="0" type="move" name="_bottom"/>
    </contour>
    <contour>
      <point x="114" y="-220" type="curve" smooth="yes"/>
      <point x="170" y="-220"/>
      <point x="194" y="-198"/>
      <point x="194" y="-143" type="curve" smooth="yes"/>
      <point x="194" y="-88"/>
      <point x="170" y="-67"/>
      <point x="114" y="-67" type="curve" smooth="yes"/>
      <point x="57" y="-67"/>
      <point x="35" y="-89"/>
      <point x="35" y="-143" type="curve" smooth="yes"/>
      <point x="35" y="-197"/>
      <point x="57" y="-220"/>
    </contour>
  </outline>
</glyph>
<glyph name="eight.denominator" format="1">
  <advance width="443"/>
  <outline>
    <contour>
      <point x="221" y="-2" type="curve" smooth="yes"/>
      <point x="348" y="-2"/>
      <point x="423" y="60"/>
      <point x="423" y="163" type="curve" smooth="yes"/>
      <point x="423" y="223"/>
      <point x="402" y="264"/>
      <point x="357" y="293" type="curve"/>
      <point x="395" y="318"/>
      <point x="409" y="348"/>
      <point x="409" y="402" type="curve" smooth="yes"/>
      <point x="409" y="492"/>
      <point x="334" y="553"/>
      <point x="221" y="553" type="curve" smooth="yes"/>
      <point x="108" y="553"/>
      <point x="33" y="492"/>
      <point x="33" y="402" type="curve" smooth="yes"/>
      <point x="33" y="345"/>
      <point x="52" y="303"/>
      <point x="90" y="274" type="curve"/>
      <point x="42" y="240"/>
      <point x="20" y="198"/>
      <point x="20" y="139" type="curve" smooth="yes"/>
      <point x="20" y="51"/>
      <point x="95" y="-2"/>
    </contour>
    <contour>
      <point x="221" y="110" type="curve" smooth="yes"/>
      <point x="179" y="110"/>
      <point x="156" y="130"/>
      <point x="156" y="164" type="curve" smooth="yes"/>
      <point x="156" y="188"/>
      <point x="170" y="207"/>
      <point x="205" y="230" type="curve"/>
      <point x="223" y="223" type="line" smooth="yes"/>
      <point x="269" y="204"/>
      <point x="287" y="186"/>
      <point x="287" y="162" type="curve" smooth="yes"/>
      <point x="287" y="127"/>
      <point x="263" y="110"/>
    </contour>
    <contour>
      <point x="239" y="327" type="curve"/>
      <point x="227" y="330" type="line" smooth="yes"/>
      <point x="184" y="342"/>
      <point x="164" y="358"/>
      <point x="164" y="388" type="curve" smooth="yes"/>
      <point x="164" y="417"/>
      <point x="185" y="437"/>
      <point x="221" y="437" type="curve" smooth="yes"/>
      <point x="257" y="437"/>
      <point x="278" y="422"/>
      <point x="278" y="391" type="curve" smooth="yes"/>
      <point x="278" y="361"/>
      <point x="265" y="341"/>
    </contour>
  </outline>
</glyph>
<glyph name="eight.numerator" format="1">
  <advance width="443"/>
  <outline>
    <contour>
      <point x="221" y="198" type="curve" smooth="yes"/>
      <point x="348" y="198"/>
      <point x="423" y="260"/>
      <point x="423" y="363" type="curve" smooth="yes"/>
      <point x="423" y="423"/>
      <point x="402" y="464"/>
      <point x="357" y="493" type="curve"/>
      <point x="395" y="518"/>
      <point x="409" y="548"/>
      <point x="409" y="602" type="curve" smooth="yes"/>
      <point x="409" y="692"/>
      <point x="334" y="753"/>
      <point x="221" y="753" type="curve" smooth="yes"/>
      <point x="108" y="753"/>
      <point x="33" y="692"/>
      <point x="33" y="602" type="curve" smooth="yes"/>
      <point x="33" y="545"/>
      <point x="52" y="503"/>
      <point x="90" y="474" type="curve"/>
      <point x="42" y="440"/>
      <point x="20" y="398"/>
      <point x="20" y="339" type="curve" smooth="yes"/>
      <point x="20" y="251"/>
      <point x="95" y="198"/>
    </contour>
    <contour>
      <point x="221" y="310" type="curve" smooth="yes"/>
      <point x="179" y="310"/>
      <point x="156" y="330"/>
      <point x="156" y="364" type="curve" smooth="yes"/>
      <point x="156" y="388"/>
      <point x="170" y="407"/>
      <point x="205" y="430" type="curve"/>
      <point x="223" y="423" type="line" smooth="yes"/>
      <point x="269" y="404"/>
      <point x="287" y="386"/>
      <point x="287" y="362" type="curve" smooth="yes"/>
      <point x="287" y="327"/>
      <point x="263" y="310"/>
    </contour>
    <contour>
      <point x="239" y="527" type="curve"/>
      <point x="227" y="530" type="line" smooth="yes"/>
      <point x="184" y="542"/>
      <point x="164" y="558"/>
      <point x="164" y="588" type="curve" smooth="yes"/>
      <point x="164" y="617"/>
      <point x="185" y="637"/>
      <point x="221" y="637" type="curve" smooth="yes"/>
      <point x="257" y="637"/>
      <point x="278" y="622"/>
      <point x="278" y="591" type="curve" smooth="yes"/>
      <point x="278" y="561"/>
      <point x="265" y="541"/>
    </contour>
  </outline>
</glyph>
<glyph name="f.calt" format="1">
  <advance width="391"/>
  <outline>
    <contour>
      <point x="83" y="0" type="line"/>
      <point x="273" y="0" type="line"/>
      <point x="273" y="382" type="line"/>
      <point x="384" y="382" type="line"/>
      <point x="384" y="540" type="line"/>
      <point x="273" y="540" type="line"/>
      <point x="273" y="579" type="line" smooth="yes"/>
      <point x="273" y="649"/>
      <point x="301" y="669"/>
      <point x="407" y="675" type="curve"/>
      <point x="395" y="817" type="line"/>
      <point x="161" y="812"/>
      <point x="84" y="749"/>
      <point x="84" y="563" type="curve" smooth="yes"/>
      <point x="84" y="540" type="line"/>
      <point x="11" y="540" type="line"/>
      <point x="11" y="382" type="line"/>
      <point x="83" y="382" type="line"/>
    </contour>
  </outline>
</glyph>
<glyph name="five.tf" format="1">
  <advance width="600"/>
  <outline>
    <contour>
      <point x="229" y="-11" type="curve" smooth="yes"/>
      <point x="429" y="-11"/>
      <point x="547" y="78"/>
      <point x="547" y="228" type="curve" smooth="yes"/>
      <point x="547" y="383"/>
      <point x="457" y="452"/>
      <point x="247" y="455" type="curve"/>
      <point x="255" y="580" type="line"/>
      <point x="490" y="580" type="line"/>
      <point x="490" y="740" type="line"/>
      <point x="104" y="740" type="line"/>
      <point x="75" y="325" type="line"/>
      <point x="80" y="321" type="line"/>
      <point x="157" y="321" type="line" smooth="yes"/>
      <point x="304" y="321"/>
      <point x="346" y="301"/>
      <point x="346" y="228" type="curve" smooth="yes"/>
      <point x="346" y="174"/>
      <point x="303" y="149"/>
      <point x="213" y="149" type="curve" smooth="yes"/>
      <point x="182" y="149"/>
      <point x="148" y="153"/>
      <point x="111" y="161" type="curve"/>
      <point x="70" y="161" type="line"/>
      <point x="70" y="4" type="line"/>
      <point x="139" y="-6"/>
      <point x="187" y="-11"/>
    </contour>
  </outline>
</glyph>
<glyph name="greater.tab" format="1">
  <advance width="600"/>
  <outline>
    <contour>
      <point x="57" y="90" type="line"/>
      <point x="566" y="297" type="line"/>
      <point x="566" y="429" type="line"/>
      <point x="57" y="636" type="line"/>
      <point x="57" y="489" type="line"/>
      <point x="368" y="363" type="line"/>
      <point x="57" y="237" type="line"/>
    </contour>
  </outline>
</glyph>
<glyph name="hungarumlaut.cap" format="1">
  <advance width="533"/>
  <outline>
    <contour>
      <point x="266" y="805" type="move" name="_topUC"/>
    </contour>
    <contour>
      <point x="205" y="790" type="line"/>
      <point x="328" y="988" type="line"/>
      <point x="171" y="988" type="line"/>
      <point x="107" y="800" type="line"/>
    </contour>
    <contour>
      <point x="403" y="790" type="line"/>
      <point x="526" y="988" type="line"/>
      <point x="369" y="988" type="line"/>
      <point x="305" y="800" type="line"/>
    </contour>
  </outline>
</glyph>
<glyph name="nine.numerator" format="1">
  <advance width="446"/>
  <outline>
    <contour>
      <point x="156" y="193" type="curve" smooth="yes"/>
      <point x="335" y="193"/>
      <point x="425" y="295"/>
      <point x="425" y="498" type="curve" smooth="yes"/>
      <point x="425" y="661"/>
      <point x="351" y="754"/>
      <point x="220" y="754" type="curve" smooth="yes"/>
      <point x="92" y="754"/>
      <point x="13" y="679"/>
      <point x="13" y="558" type="curve" smooth="yes"/>
      <point x="13" y="462"/>
      <point x="80" y="399"/>
      <point x="184" y="399" type="curve" smooth="yes"/>
      <point x="219" y="399"/>
      <point x="250" y="407"/>
      <point x="273" y="423" type="curve"/>
      <point x="260" y="348"/>
      <point x="226" y="319"/>
      <point x="152" y="319" type="curve" smooth="yes"/>
      <point x="131" y="319"/>
      <point x="102" y="323"/>
      <point x="61" y="331" type="curve"/>
      <point x="42" y="209" type="line"/>
      <point x="89" y="198"/>
      <point x="127" y="193"/>
    </contour>
    <contour>
      <point x="220" y="498" type="curve" smooth="yes"/>
      <point x="179" y="498"/>
      <point x="162" y="516"/>
      <point x="162" y="562" type="curve" smooth="yes"/>
      <point x="162" y="601"/>
      <point x="180" y="620"/>
      <point x="220" y="620" type="curve" smooth="yes"/>
      <point x="257" y="620"/>
      <point x="275" y="592"/>
      <point x="279" y="524" type="curve"/>
      <point x="262" y="508"/>
      <point x="239" y="498"/>
    </contour>
  </outline>
</glyph>
<glyph name="nine.tosf" format="1">
  <advance width="600"/>
  <outline>
    <contour>
      <point x="294" y="588" type="curve" smooth="yes"/>
      <point x="127" y="588"/>
      <point x="25" y="494"/>
      <point x="25" y="340" type="curve" smooth="yes"/>
      <point x="25" y="212"/>
      <point x="112" y="130"/>
      <point x="246" y="130" type="curve" smooth="yes"/>
      <point x="298" y="130"/>
      <point x="343" y="145"/>
      <point x="374" y="172" type="curve"/>
      <point x="357" y="72"/>
      <point x="307" y="36"/>
      <point x="203" y="36" type="curve" smooth="yes"/>
      <point x="174" y="36"/>
      <point x="139" y="40"/>
      <point x="87" y="51" type="curve"/>
      <point x="64" y="-98" type="line"/>
      <point x="117" y="-111"/>
      <point x="165" y="-118"/>
      <point x="210" y="-118" type="curve" smooth="yes"/>
      <point x="448" y="-118"/>
      <point x="566" y="14"/>
      <point x="566" y="272" type="curve" smooth="yes"/>
      <point x="566" y="475"/>
      <point x="467" y="588"/>
    </contour>
    <contour>
      <point x="294" y="268" type="curve" smooth="yes"/>
      <point x="240" y="268"/>
      <point x="215" y="293"/>
      <point x="215" y="346" type="curve" smooth="yes"/>
      <point x="215" y="403"/>
      <point x="239" y="429"/>
      <point x="294" y="429" type="curve" smooth="yes"/>
      <point x="349" y="429"/>
      <point x="375" y="390"/>
      <point x="380" y="304" type="curve"/>
      <point x="361" y="283"/>
      <point x="327" y="268"/>
    </contour>
  </outline>
</glyph>
<glyph name="one.denominator" format="1">
  <advance width="343"/>
  <outline>
    <contour>
      <point x="129" y="0" type="line"/>
      <point x="294" y="0" type="line"/>
      <point x="294" y="546" type="line"/>
      <point x="170" y="546" type="line"/>
      <point x="6" y="449" type="line"/>
      <point x="1" y="425" type="line"/>
      <point x="24" y="355" type="line"/>
      <point x="47" y="355" type="line"/>
      <point x="129" y="378" type="line"/>
    </contour>
  </outline>
</glyph>
<glyph name="paragraph.tab" format="1">
  <advance width="600"/>
  <outline>
    <contour>
      <point x="355" y="0" type="line"/>
      <point x="272" y="0" type="line"/>
      <point x="272" y="265" type="line"/>
      <point x="264" y="265"/>
      <point x="257" y="265"/>
      <point x="249" y="265" type="curve" smooth="yes"/>
      <point x="113" y="265"/>
      <point x="27" y="326"/>
      <point x="27" y="505" type="curve" smooth="yes"/>
      <point x="27" y="684"/>
      <point x="111" y="745"/>
      <point x="246" y="745" type="curve" smooth="yes"/>
      <point x="276" y="745"/>
      <point x="319" y="741"/>
      <point x="355" y="735" type="curve"/>
    </contour>
    <contour>
      <point x="526" y="0" type="line"/>
      <point x="413" y="0" type="line"/>
      <point x="413" y="735" type="line"/>
      <point x="526" y="735" type="line"/>
    </contour>
  </outline>
</glyph>
<glyph name="parenright.sc" format="1">
  <advance width="323"/>
  <outline>
    <contour>
      <point x="160" y="-125" type="line"/>
      <point x="252" y="-7"/>
      <point x="298" y="135"/>
      <point x="298" y="276" type="curve" smooth="yes"/>
      <point x="298" y="417"/>
      <point x="252" y="559"/>
      <point x="160" y="677" type="curve"/>
      <point x="7" y="677" type="line"/>
      <point x="7" y="674" type="line"/>
      <point x="99" y="556"/>
      <point x="157" y="415"/>
      <point x="157" y="276" type="curve" smooth="yes"/>
      <point x="157" y="138"/>
      <point x="99" y="-3"/>
      <point x="7" y="-122" type="curve"/>
      <point x="7" y="-125" type="line"/>
    </contour>
  </outline>
</glyph>
<glyph name="period.tab" format="1">
  <advance width="300"/>
  <outline>
    <contour>
      <point x="149" y="-9" type="curve" smooth="yes"/>
      <point x="223" y="-9"/>
      <point x="254" y="21"/>
      <point x="254" y="91" type="curve" smooth="yes"/>
      <point x="254" y="161"/>
      <point x="222" y="190"/>
      <point x="149" y="190" type="curve" smooth="yes"/>
      <point x="74" y="190"/>
      <point x="45" y="161"/>
      <point x="45" y="91" type="curve" smooth="yes"/>
      <point x="45" y="20"/>
      <point x="75" y="-9"/>
    </contour>
  </outline>
</glyph>
<glyph name="quotesingle.tab" format="1">
  <advance width="300"/>
  <outline>
    <contour>
      <point x="82" y="808" type="line"/>
      <point x="82" y="480" type="line"/>
      <point x="189" y="480" type="line"/>
      <point x="241" y="804" type="line"/>
      <point x="241" y="808" type="line"/>
    </contour>
  </outline>
</glyph>
<glyph name="seven.tf" format="1">
  <advance width="600"/>
  <outline>
    <contour>
      <point x="291" y="-21" type="line"/>
      <point x="124" y="0" type="line"/>
      <point x="124" y="21" type="line"/>
      <point x="354" y="580" type="line"/>
      <point x="52" y="580" type="line"/>
      <point x="51" y="717" type="line"/>
      <point x="79" y="740" type="line"/>
      <point x="532" y="740" type="line"/>
      <point x="555" y="629" type="line"/>
      <point x="555" y="602" type="line"/>
      <point x="327" y="3" type="line"/>
    </contour>
  </outline>
</glyph>
<glyph name="seven.tosf" format="1">
  <advance width="600"/>
  <outline>
    <contour>
      <point x="292" y="-179" type="line"/>
      <point x="125" y="-158" type="line"/>
      <point x="125" y="-137" type="line"/>
      <point x="355" y="422" type="line"/>
      <point x="53" y="422" type="line"/>
      <point x="52" y="559" type="line"/>
      <point x="80" y="582" type="line"/>
      <point x="533" y="582" type="line"/>
      <point x="556" y="471" type="line"/>
      <point x="556" y="444" type="line"/>
      <point x="328" y="-155" type="line"/>
    </contour>
  </outline>
</glyph>
<glyph name="slash.tab" format="1">
  <advance width="600"/>
  <outline>
    <contour>
      <point x="87" y="-120" type="line"/>
      <point x="273" y="-120" type="line"/>
      <point x="513" y="740" type="line"/>
      <point x="327" y="740" type="line"/>
    </contour>
  </outline>
</glyph>
<glyph name="sterling.tab" format="1">
  <advance width="600"/>
  <outline>
    <contour>
      <point x="28" y="301" type="line"/>
      <point x="133" y="301" type="line"/>
      <point x="133" y="164" type="line"/>
      <point x="28" y="164" type="line"/>
      <point x="28" y="0" type="line"/>
      <point x="561" y="0" type="line"/>
      <point x="561" y="162" type="line"/>
      <point x="327" y="162" type="line"/>
      <point x="327" y="301" type="line"/>
      <point x="488" y="301" type="line"/>
      <point x="488" y="446" type="line"/>
      <point x="327" y="446" type="line"/>
      <point x="327" y="528" type="line" smooth="yes"/>
      <point x="327" y="577"/>
      <point x="348" y="591"/>
      <point x="407" y="591" type="curve" smooth="yes"/>
      <point x="450" y="591"/>
      <point x="524" y="583"/>
      <point x="570" y="573" type="curve"/>
      <point x="575" y="725" type="line"/>
      <point x="490" y="741"/>
      <point x="425" y="750"/>
      <point x="367" y="750" type="curve" smooth="yes"/>
      <point x="205" y="750"/>
      <point x="133" y="681"/>
      <point x="133" y="533" type="curve" smooth="yes"/>
      <point x="133" y="446" type="line"/>
      <point x="28" y="446" type="line"/>
    </contour>
  </outline>
</glyph>
<glyph name="three.numerator" format="1">
  <advance width="388"/>
  <outline>
    <contour>
      <point x="144" y="193" type="curve" smooth="yes"/>
      <point x="286" y="193"/>
      <point x="368" y="252"/>
      <point x="368" y="355" type="curve" smooth="yes"/>
      <point x="368" y="417"/>
      <point x="334" y="463"/>
      <point x="274" y="482" type="curve"/>
      <point x="326" y="502"/>
      <point x="353" y="547"/>
      <point x="353" y="615" type="curve" smooth="yes"/>
      <point x="353" y="712"/>
      <point x="290" y="754"/>
      <point x="142" y="754" type="curve" smooth="yes"/>
      <point x="99" y="754"/>
      <point x="63" y="750"/>
      <point x="27" y="741" type="curve"/>
      <point x="27" y="609" type="line"/>
      <point x="36" y="609" type="line"/>
      <point x="73" y="616"/>
      <point x="103" y="619"/>
      <point x="128" y="619" type="curve" smooth="yes"/>
      <point x="173" y="619"/>
      <point x="193" y="606"/>
      <point x="193" y="577" type="curve" smooth="yes"/>
      <point x="193" y="546"/>
      <point x="173" y="535"/>
      <point x="117" y="535" type="curve" smooth="yes"/>
      <point x="84" y="535" type="line"/>
      <point x="84" y="415" type="line"/>
      <point x="118" y="415" type="line" smooth="yes"/>
      <point x="188" y="415"/>
      <point x="208" y="405"/>
      <point x="208" y="371" type="curve" smooth="yes"/>
      <point x="208" y="340"/>
      <point x="184" y="328"/>
      <point x="119" y="328" type="curve" smooth="yes"/>
      <point x="91" y="328"/>
      <point x="59" y="333"/>
      <point x="37" y="340" type="curve"/>
      <point x="27" y="340" type="line"/>
      <point x="27" y="204" type="line"/>
      <point x="66" y="196"/>
      <point x="100" y="193"/>
    </contour>
  </outline>
</glyph>
<glyph name="three.osf" format="1">
  <advance width="479"/>
  <outline>
    <contour>
      <point x="172" y="-176" type="curve" smooth="yes"/>
      <point x="356" y="-173"/>
      <point x="460" y="-96"/>
      <point x="460" y="39" type="curve" smooth="yes"/>
      <point x="460" y="131"/>
      <point x="406" y="195"/>
      <point x="313" y="213" type="curve"/>
      <point x="313" y="217" type="line"/>
      <point x="397" y="238"/>
      <point x="440" y="300"/>
      <point x="440" y="402" type="curve" smooth="yes"/>
      <point x="440" y="530"/>
      <point x="358" y="585"/>
      <point x="169" y="585" type="curve" smooth="yes"/>
      <point x="114" y="585"/>
      <point x="68" y="580"/>
      <point x="26" y="569" type="curve"/>
      <point x="26" y="420" type="line"/>
      <point x="30" y="420" type="line"/>
      <point x="84" y="430"/>
      <point x="121" y="435"/>
      <point x="153" y="435" type="curve" smooth="yes"/>
      <point x="221" y="435"/>
      <point x="245" y="415"/>
      <point x="245" y="358" type="curve" smooth="yes"/>
      <point x="245" y="293"/>
      <point x="227" y="280"/>
      <point x="137" y="280" type="curve" smooth="yes"/>
      <point x="101" y="280" type="line"/>
      <point x="101" y="138" type="line"/>
      <point x="138" y="138" type="line" smooth="yes"/>
      <point x="239" y="138"/>
      <point x="265" y="117"/>
      <point x="265" y="55" type="curve" smooth="yes"/>
      <point x="265" y="-7"/>
      <point x="233" y="-29"/>
      <point x="139" y="-29" type="curve" smooth="yes"/>
      <point x="96" y="-29"/>
      <point x="55" y="-23"/>
      <point x="30" y="-13" type="curve"/>
      <point x="26" y="-13" type="line"/>
      <point x="26" y="-162" type="line"/>
      <point x="80" y="-172"/>
      <point x="125" y="-176"/>
    </contour>
  </outline>
</glyph>
<glyph name="three.tf" format="1">
  <advance width="600"/>
  <outline>
    <contour>
      <point x="225" y="-9" type="curve" smooth="yes"/>
      <point x="425" y="-9"/>
      <point x="539" y="70"/>
      <point x="539" y="205" type="curve" smooth="yes"/>
      <point x="539" y="297"/>
      <point x="479" y="361"/>
      <point x="375" y="379" type="curve"/>
      <point x="375" y="383" type="line"/>
      <point x="468" y="404"/>
      <point x="516" y="466"/>
      <point x="516" y="568" type="curve" smooth="yes"/>
      <point x="516" y="696"/>
      <point x="426" y="751"/>
      <point x="222" y="751" type="curve" smooth="yes"/>
      <point x="163" y="751"/>
      <point x="113" y="746"/>
      <point x="66" y="735" type="curve"/>
      <point x="67" y="591" type="line"/>
      <point x="72" y="591" type="line"/>
      <point x="130" y="601"/>
      <point x="171" y="606"/>
      <point x="206" y="606" type="curve" smooth="yes"/>
      <point x="285" y="606"/>
      <point x="314" y="585"/>
      <point x="314" y="524" type="curve" smooth="yes"/>
      <point x="314" y="455"/>
      <point x="289" y="441"/>
      <point x="186" y="441" type="curve" smooth="yes"/>
      <point x="148" y="441" type="line"/>
      <point x="148" y="309" type="line"/>
      <point x="187" y="309" type="line" smooth="yes"/>
      <point x="303" y="309"/>
      <point x="337" y="287"/>
      <point x="337" y="221" type="curve" smooth="yes"/>
      <point x="337" y="155"/>
      <point x="298" y="132"/>
      <point x="192" y="132" type="curve" smooth="yes"/>
      <point x="145" y="132"/>
      <point x="100" y="138"/>
      <point x="71" y="148" type="curve"/>
      <point x="66" y="148" type="line"/>
      <point x="66" y="4" type="line"/>
      <point x="125" y="-6"/>
      <point x="174" y="-9"/>
    </contour>
  </outline>
</glyph>
<glyph name="two.numerator" format="1">
  <advance width="417"/>
  <outline>
    <contour>
      <point x="21" y="200" type="line"/>
      <point x="389" y="200" type="line"/>
      <point x="389" y="332" type="line"/>
      <point x="191" y="332" type="line"/>
      <point x="191" y="343" type="line" smooth="yes"/>
      <point x="191" y="356"/>
      <point x="227" y="385"/>
      <point x="292" y="424" type="curve" smooth="yes"/>
      <point x="357" y="461"/>
      <point x="394" y="514"/>
      <point x="394" y="595" type="curve" smooth="yes"/>
      <point x="394" y="701"/>
      <point x="329" y="754"/>
      <point x="199" y="754" type="curve" smooth="yes"/>
      <point x="152" y="754"/>
      <point x="91" y="746"/>
      <point x="31" y="733" type="curve"/>
      <point x="44" y="607" type="line"/>
      <point x="76" y="612"/>
      <point x="117" y="619"/>
      <point x="153" y="619" type="curve" smooth="yes"/>
      <point x="205" y="619"/>
      <point x="229" y="606"/>
      <point x="229" y="577" type="curve" smooth="yes"/>
      <point x="229" y="547"/>
      <point x="211" y="526"/>
      <point x="160" y="497" type="curve" smooth="yes"/>
      <point x="56" y="437"/>
      <point x="21" y="390"/>
      <point x="21" y="308" type="curve" smooth="yes"/>
    </contour>
  </outline>
</glyph>
<glyph name="two.osf" format="1">
  <advance width="480"/>
  <outline>
    <contour>
      <point x="24" y="0" type="line"/>
      <point x="446" y="0" type="line"/>
      <point x="446" y="162" type="line"/>
      <point x="230" y="162" type="line"/>
      <point x="230" y="169" type="line" smooth="yes"/>
      <point x="230" y="188"/>
      <point x="256" y="198"/>
      <point x="286" y="208" type="curve" smooth="yes"/>
      <point x="351" y="229"/>
      <point x="453" y="259"/>
      <point x="453" y="406" type="curve" smooth="yes"/>
      <point x="453" y="527"/>
      <point x="380" y="589"/>
      <point x="231" y="589" type="curve" smooth="yes"/>
      <point x="175" y="589"/>
      <point x="108" y="581"/>
      <point x="38" y="557" type="curve"/>
      <point x="53" y="413" type="line"/>
      <point x="87" y="428"/>
      <point x="132" y="439"/>
      <point x="166" y="439" type="curve" smooth="yes"/>
      <point x="239" y="439"/>
      <point x="268" y="419"/>
      <point x="268" y="385" type="curve" smooth="yes"/>
      <point x="268" y="345"/>
      <point x="204" y="332"/>
      <point x="142" y="299" type="curve" smooth="yes"/>
      <point x="82" y="268"/>
      <point x="24" y="218"/>
      <point x="24" y="111" type="curve" smooth="yes"/>
    </contour>
  </outline>
</glyph>
<glyph name="two.tf" format="1">
  <advance width="600"/>
  <outline>
    <contour>
      <point x="55" y="0" type="line"/>
      <point x="536" y="0" type="line"/>
      <point x="536" y="162" type="line"/>
      <point x="250" y="162" type="line"/>
      <point x="250" y="188" type="line" smooth="yes"/>
      <point x="250" y="217"/>
      <point x="266" y="226"/>
      <point x="377" y="291" type="curve" smooth="yes"/>
      <point x="493" y="358"/>
      <point x="543" y="435"/>
      <point x="543" y="540" type="curve" smooth="yes"/>
      <point x="543" y="680"/>
      <point x="459" y="750"/>
      <point x="291" y="750" type="curve" smooth="yes"/>
      <point x="229" y="750"/>
      <point x="151" y="741"/>
      <point x="70" y="723" type="curve"/>
      <point x="86" y="571" type="line"/>
      <point x="131" y="583"/>
      <point x="184" y="591"/>
      <point x="226" y="591" type="curve" smooth="yes"/>
      <point x="312" y="591"/>
      <point x="345" y="570"/>
      <point x="345" y="514" type="curve" smooth="yes"/>
      <point x="345" y="462"/>
      <point x="318" y="431"/>
      <point x="237" y="390" type="curve" smooth="yes"/>
      <point x="101" y="320"/>
      <point x="55" y="256"/>
      <point x="55" y="139" type="curve" smooth="yes"/>
    </contour>
  </outline>
</glyph>
<glyph name="uni0162.sc" format="1">
  <advance width="518"/>
  <outline>
    <contour>
      <point x="244" y="-172" type="curve" smooth="yes"/>
      <point x="317" y="-172"/>
      <point x="356" y="-137"/>
      <point x="356" y="-89" type="curve" smooth="yes"/>
      <point x="356" y="-56"/>
      <point x="347" y="-32"/>
      <point x="324" y="0" type="curve"/>
      <point x="350" y="0" type="line"/>
      <point x="350" y="424" type="line"/>
      <point x="499" y="424" type="line"/>
      <point x="499" y="577" type="line"/>
      <point x="18" y="577" type="line"/>
      <point x="18" y="424" type="line"/>
      <point x="167" y="424" type="line"/>
      <point x="167" y="0" type="line"/>
      <point x="217" y="0" type="line"/>
      <point x="233" y="-24"/>
      <point x="242" y="-44"/>
      <point x="242" y="-57" type="curve" smooth="yes"/>
      <point x="242" y="-60"/>
      <point x="235" y="-68"/>
      <point x="217" y="-68" type="curve" smooth="yes"/>
      <point x="212" y="-68"/>
      <point x="186" y="-67"/>
      <point x="161" y="-64" type="curve"/>
      <point x="161" y="-162" type="line"/>
      <point x="195" y="-169"/>
      <point x="225" y="-172"/>
    </contour>
  </outline>
</glyph>
<glyph name="uni030F.cap" format="1">
  <advance width="447"/>
  <outline>
    <contour>
      <point x="262" y="805" type="move" name="_topUC"/>
    </contour>
    <contour>
      <point x="223" y="800" type="line"/>
      <point x="159" y="988" type="line"/>
      <point x="2" y="988" type="line"/>
      <point x="126" y="790" type="line"/>
    </contour>
    <contour>
      <point x="421" y="800" type="line"/>
      <point x="357" y="988" type="line"/>
      <point x="200" y="988" type="line"/>
      <point x="324" y="790" type="line"/>
    </contour>
  </outline>
</glyph>
<glyph name="uni0311.cap" format="1">
  <advance width="413"/>
  <outline>
    <contour>
      <point x="206" y="805" type="move" name="_topUC"/>
    </contour>
    <contour>
      <point x="396" y="800" type="line"/>
      <point x="396" y="916"/>
      <point x="329" y="986"/>
      <point x="207" y="986" type="curve" smooth="yes"/>
      <point x="83" y="986"/>
      <point x="18" y="916"/>
      <point x="18" y="800" type="curve"/>
      <point x="145" y="800" type="line"/>
      <point x="145" y="876"/>
      <point x="157" y="900"/>
      <point x="207" y="900" type="curve" smooth="yes"/>
      <point x="255" y="900"/>
      <point x="268" y="876"/>
      <point x="268" y="800" type="curve"/>
    </contour>
  </outline>
</glyph>
<glyph name="yen.tab" format="1">
  <advance width="600"/>
  <outline>
    <contour>
      <point x="39" y="246" type="line"/>
      <point x="206" y="246" type="line"/>
      <point x="206" y="182" type="line"/>
      <point x="39" y="182" type="line"/>
      <point x="39" y="50" type="line"/>
      <point x="206" y="50" type="line"/>
      <point x="206" y="0" type="line"/>
      <point x="397" y="0" type="line"/>
      <point x="397" y="50" type="line"/>
      <point x="557" y="50" type="line"/>
      <point x="557" y="182" type="line"/>
      <point x="397" y="182" type="line"/>
      <point x="397" y="246" type="line"/>
      <point x="557" y="246" type="line"/>
      <point x="557" y="378" type="line"/>
      <point x="457" y="378" type="line"/>
      <point x="635" y="740" type="line"/>
      <point x="424" y="740" type="line"/>
      <point x="310" y="450" type="line"/>
      <point x="295" y="450" type="line"/>
      <point x="183" y="740" type="line"/>
      <point x="-33" y="740" type="line"/>
      <point x="145" y="378" type="line"/>
      <point x="39" y="378" type="line"/>
    </contour>
  </outline>
</glyph>
<glyph name="zero.numerator" format="1">
  <advance width="494"/>
  <note>
    420
  </note>
  <outline>
    <contour>
      <point x="247" y="193" type="curve"/>
      <point x="394" y="193"/>
      <point x="473" y="291"/>
      <point x="473" y="473" type="curve" smooth="yes"/>
      <point x="473" y="655"/>
      <point x="394" y="754"/>
      <point x="247" y="754" type="curve" smooth="yes"/>
      <point x="101" y="754"/>
      <point x="21" y="655"/>
      <point x="21" y="473" type="curve" smooth="yes"/>
      <point x="21" y="291"/>
      <point x="101" y="193"/>
    </contour>
    <contour>
      <point x="247" y="328" type="curve" smooth="yes"/>
      <point x="202" y="328"/>
      <point x="186" y="367"/>
      <point x="186" y="473" type="curve" smooth="yes"/>
      <point x="186" y="580"/>
      <point x="202" y="619"/>
      <point x="247" y="619" type="curve" smooth="yes"/>
      <point x="293" y="619"/>
      <point x="308" y="581"/>
      <point x="308" y="473" type="curve" smooth="yes"/>
      <point x="308" y="365"/>
      <point x="293" y="328"/>
    </contour>
  </outline>
</glyph>
